<svg width="1647" height="1442" viewBox="0 0 1647 1442" fill="none" xmlns="http://www.w3.org/2000/svg">
<g filter="url(#filter0_d_1_865)">
<path d="M931.067 804.696C928.359 806.552 925.636 808.4 922.9 810.241L922.623 809.829C919.888 811.669 917.14 813.503 914.379 815.329L914.654 815.745C911.891 817.572 909.115 819.391 906.325 821.202L906.054 820.785C903.298 822.575 900.529 824.356 897.748 826.131L898.015 826.551C895.237 828.324 892.446 830.089 889.642 831.846L889.376 831.424C886.573 833.181 883.757 834.929 880.928 836.67L881.19 837.094C878.385 838.82 875.568 840.538 872.738 842.248L872.481 841.822C869.662 843.525 866.832 845.22 863.989 846.907L864.244 847.335C861.4 849.023 858.544 850.703 855.676 852.374L855.425 851.943C853.992 852.778 852.555 853.611 851.116 854.442C849.677 855.273 848.237 856.101 846.797 856.924L847.046 857.357C844.165 859.005 841.282 860.638 838.399 862.257L838.154 861.823C835.272 863.441 832.388 865.045 829.504 866.634L829.745 867.07C826.85 868.665 823.953 870.245 821.057 871.811L820.819 871.374C817.897 872.953 814.975 874.518 812.052 876.067L812.286 876.507C809.362 878.058 806.438 879.592 803.513 881.113L803.283 880.67C800.355 882.192 797.427 883.699 794.5 885.191L794.726 885.634C791.763 887.144 788.8 888.639 785.836 890.118L785.613 889.672C782.65 891.151 779.688 892.614 776.727 894.062L776.946 894.508C773.984 895.956 771.022 897.39 768.061 898.808L767.845 898.357C764.844 899.794 761.844 901.214 758.845 902.619L759.057 903.069C756.055 904.475 753.055 905.866 750.056 907.24L749.848 906.786C746.85 908.159 743.854 909.517 740.859 910.858L741.063 911.312C738.027 912.672 734.992 914.015 731.96 915.342L731.759 914.886C728.723 916.215 725.687 917.528 722.655 918.823L722.852 919.282C719.818 920.579 716.785 921.858 713.756 923.121L713.564 922.661C710.495 923.941 707.428 925.204 704.364 926.45L704.553 926.912C701.48 928.162 698.41 929.395 695.343 930.61L695.159 930.147C692.093 931.362 689.031 932.56 685.971 933.741L686.15 934.205C683.045 935.403 679.945 936.585 676.847 937.748L676.672 937.282C673.567 938.448 670.466 939.596 667.369 940.727L667.541 941.196C664.443 942.327 661.348 943.439 658.258 944.535L658.091 944.065C654.953 945.178 651.819 946.273 648.69 947.349L648.852 947.82C645.715 948.898 642.584 949.96 639.457 951.002L639.299 950.529C636.174 951.571 633.052 952.594 629.937 953.599L630.092 954.074C626.916 955.098 623.745 956.103 620.58 957.089L620.431 956.615C617.268 957.6 614.111 958.567 610.96 959.514L611.103 959.992C607.941 960.943 604.784 961.875 601.634 962.787L601.494 962.309C598.292 963.236 595.097 964.145 591.91 965.032L592.043 965.512C588.854 966.4 585.671 967.269 582.496 968.118L582.367 967.636C579.168 968.491 575.976 969.325 572.792 970.139L572.917 970.622C569.689 971.448 566.47 972.254 563.259 973.037L563.14 972.552C559.931 973.336 556.73 974.098 553.539 974.839L553.652 975.327C550.412 976.079 547.181 976.809 543.959 977.519L543.851 977.033C540.606 977.748 537.371 978.441 534.146 979.112L534.248 979.6C531.02 980.272 527.803 980.922 524.595 981.55L524.5 981.06C521.22 981.703 517.951 982.322 514.693 982.919L514.783 983.409C511.523 984.006 508.273 984.58 505.035 985.131L504.951 984.64C501.684 985.196 498.43 985.728 495.187 986.237L495.264 986.73C491.97 987.247 488.689 987.74 485.421 988.209L485.349 987.716C482.083 988.185 478.83 988.629 475.59 989.049L475.654 989.543C472.342 989.973 469.043 990.379 465.759 990.758L465.702 990.263C462.407 990.644 459.126 990.999 455.861 991.329L455.912 991.825C452.612 992.158 449.328 992.465 446.059 992.747L446.016 992.25C442.694 992.535 439.387 992.794 436.098 993.026L436.134 993.523C432.842 993.756 429.568 993.962 426.31 994.14L426.283 993.641C422.941 993.824 419.617 993.979 416.313 994.105L416.332 994.602C413.02 994.728 409.727 994.826 406.453 994.895L406.442 994.397C403.114 994.467 399.805 994.508 396.517 994.519L396.52 995.017C393.19 995.028 389.883 995.008 386.597 994.958L386.606 994.461C383.291 994.411 379.999 994.329 376.73 994.217L376.713 994.715C373.373 994.6 370.058 994.453 366.767 994.273L366.794 993.776C363.495 993.596 360.221 993.383 356.973 993.138L356.936 993.634C353.593 993.382 350.278 993.096 346.99 992.775L347.039 992.278C343.755 991.957 340.498 991.603 337.271 991.212L337.212 991.707C333.879 991.304 330.576 990.864 327.305 990.387L327.376 989.895C324.106 989.419 320.867 988.905 317.66 988.355L317.576 988.845C314.27 988.278 310.999 987.672 307.762 987.026L307.859 986.538C304.616 985.892 301.409 985.205 298.238 984.48L298.126 984.964C294.857 984.216 291.627 983.426 288.435 982.594L288.56 982.114C285.362 981.28 282.204 980.404 279.086 979.486L278.946 979.964C275.727 979.016 272.55 978.024 269.417 976.987L269.573 976.513C266.435 975.473 263.341 974.388 260.293 973.258L260.119 973.724C256.976 972.558 253.881 971.344 250.835 970.082L251.025 969.623C247.963 968.354 244.951 967.037 241.991 965.671L241.783 966.124C238.75 964.724 235.771 963.272 232.847 961.77L233.075 961.329C230.12 959.811 227.222 958.24 224.382 956.618L224.135 957.05C221.249 955.401 218.421 953.698 215.655 951.941L215.922 951.521C213.114 949.738 210.37 947.899 207.69 946.004L207.403 946.409C204.698 944.496 202.059 942.527 199.486 940.501L199.794 940.11C197.184 938.054 194.643 935.94 192.174 933.767L191.844 934.141C189.356 931.952 186.939 929.703 184.595 927.394L184.945 927.039C182.591 924.721 180.311 922.342 178.107 919.903L177.737 920.237C175.519 917.782 173.377 915.266 171.312 912.688L171.701 912.378C169.642 909.807 167.66 907.175 165.758 904.482L165.352 904.768C163.45 902.075 161.628 899.32 159.886 896.505L160.307 896.245C159.439 894.841 158.591 893.422 157.763 891.989C156.935 890.555 156.13 889.111 155.349 887.657L154.913 887.891C153.345 884.975 151.871 882.019 150.49 879.025L150.94 878.818C149.559 875.824 148.271 872.792 147.074 869.723L146.61 869.904C145.411 866.827 144.302 863.714 143.286 860.565L143.76 860.413C142.75 857.285 141.83 854.121 140.999 850.923L140.516 851.048C139.689 847.863 138.95 844.646 138.298 841.396L138.787 841.299C138.14 838.073 137.58 834.816 137.104 831.528L136.611 831.599C136.143 828.357 135.757 825.087 135.453 821.788L135.948 821.743C135.647 818.475 135.427 815.178 135.286 811.856L134.788 811.876C134.649 808.602 134.589 805.302 134.604 801.978L135.102 801.98C135.117 798.709 135.206 795.414 135.369 792.097L134.873 792.072C135.034 788.789 135.265 785.483 135.569 782.157L136.066 782.204C136.363 778.957 136.729 775.69 137.161 772.404L136.667 772.338C137.097 769.069 137.594 765.782 138.157 762.477L138.647 762.56C139.192 759.355 139.8 756.133 140.469 752.895L139.979 752.793C140.647 749.562 141.376 746.315 142.165 743.052L142.65 743.171C143.414 740.012 144.234 736.839 145.111 733.652L144.632 733.52C145.507 730.339 146.439 727.146 147.426 723.941L147.901 724.088C148.858 720.979 149.867 717.858 150.928 714.727L150.458 714.565C151.517 711.44 152.628 708.303 153.789 705.157L154.256 705.33C155.383 702.278 156.557 699.217 157.78 696.147L157.318 695.961C158.541 692.89 159.811 689.809 161.128 686.721L161.587 686.918C162.863 683.928 164.183 680.931 165.547 677.926L165.093 677.719C166.459 674.712 167.868 671.697 169.321 668.676L169.77 668.893C171.182 665.957 172.635 663.015 174.128 660.068L173.684 659.842C175.174 656.903 176.704 653.958 178.274 651.008L178.715 651.243C180.252 648.356 181.827 645.464 183.441 642.569L183.007 642.325C184.606 639.456 186.242 636.581 187.916 633.704L188.347 633.956C190 631.114 191.689 628.269 193.414 625.421L192.989 625.163C194.685 622.363 196.415 619.559 198.181 616.754L198.603 617.02C200.364 614.221 202.16 611.42 203.989 608.617L203.571 608.344C205.354 605.612 207.17 602.88 209.017 600.145L209.429 600.424C211.275 597.692 213.152 594.958 215.061 592.224L214.652 591.937C216.529 589.247 218.438 586.556 220.376 583.865L220.781 584.158C222.699 581.495 224.647 578.831 226.624 576.168L226.225 575.871C228.195 573.217 230.195 570.562 232.223 567.908L232.619 568.212C234.603 565.616 236.615 563.021 238.655 560.427L238.262 560.118C240.302 557.522 242.371 554.926 244.466 552.332L244.854 552.646C246.916 550.093 249.004 547.54 251.119 544.99L250.735 544.67C252.831 542.141 254.954 539.614 257.101 537.088L257.481 537.412C259.626 534.89 261.797 532.368 263.993 529.849L263.617 529.521C265.765 527.057 267.936 524.595 270.132 522.136L270.504 522.47C272.698 520.013 274.916 517.557 277.157 515.104L276.789 514.767C279.015 512.331 281.263 509.898 283.535 507.469L283.901 507.811C286.139 505.418 288.399 503.026 290.682 500.639L290.32 500.293C292.605 497.904 294.912 495.519 297.241 493.137L297.597 493.487C299.894 491.137 302.212 488.79 304.552 486.447L304.2 486.094C306.522 483.768 308.865 481.446 311.229 479.128L311.579 479.485C313.941 477.168 316.325 474.855 318.729 472.546L318.385 472.186C320.751 469.914 323.136 467.646 325.542 465.382L325.882 465.746C328.279 463.491 330.695 461.239 333.13 458.993L332.792 458.626C335.229 456.379 337.684 454.135 340.159 451.897L340.495 452.268C342.922 450.073 345.368 447.882 347.833 445.696L347.502 445.322C349.968 443.135 352.453 440.954 354.956 438.777L355.283 439.153C357.779 436.981 360.295 434.815 362.828 432.653L362.504 432.273C364.998 430.145 367.509 428.021 370.038 425.904L370.358 426.287C372.885 424.171 375.43 422.059 377.992 419.954L377.676 419.568C380.232 417.467 382.806 415.371 385.396 413.282L385.708 413.671C388.261 411.612 390.83 409.559 393.415 407.512L393.106 407.118C395.692 405.07 398.296 403.029 400.914 400.992L401.22 401.387C403.83 399.356 406.457 397.332 409.1 395.315L408.798 394.917C411.407 392.925 414.031 390.939 416.671 388.96L416.97 389.36C419.608 387.382 422.262 385.41 424.931 383.444L424.636 383.042C427.302 381.079 429.982 379.123 432.678 377.173L432.969 377.578C435.628 375.655 438.302 373.739 440.99 371.829L440.701 371.421C443.391 369.511 446.095 367.608 448.813 365.712L449.098 366.121C451.814 364.226 454.544 362.338 457.289 360.458L457.006 360.045C459.715 358.189 462.437 356.341 465.172 354.5L465.45 354.913C468.184 353.073 470.932 351.239 473.694 349.413L473.419 348.996C476.182 347.17 478.958 345.35 481.747 343.538L482.019 343.958C484.774 342.168 487.543 340.386 490.325 338.611L490.057 338.189C492.836 336.417 495.627 334.652 498.431 332.895L498.696 333.319C501.5 331.562 504.316 329.813 507.145 328.073L506.883 327.647C509.688 325.921 512.505 324.203 515.335 322.493L515.592 322.921C518.41 321.218 521.241 319.523 524.084 317.836L523.829 317.406C526.673 315.718 529.529 314.039 532.397 312.368L532.647 312.799L536.956 310.301C538.395 309.47 539.835 308.642 541.276 307.818L541.028 307.385C543.909 305.737 546.791 304.103 549.674 302.484L549.919 302.92C552.801 301.302 555.685 299.698 558.569 298.109L558.327 297.671C561.223 296.075 564.119 294.495 567.016 292.929L567.254 293.368C570.176 291.789 573.098 290.225 576.021 288.676L575.787 288.233C578.711 286.683 581.635 285.148 584.56 283.628L584.79 284.072C587.717 282.55 590.645 281.044 593.573 279.552L593.346 279.107C596.31 277.597 599.274 276.102 602.237 274.623L602.46 275.07C605.422 273.591 608.384 272.128 611.345 270.681L611.126 270.233C614.089 268.785 617.051 267.351 620.012 265.934L620.227 266.385C623.228 264.949 626.228 263.528 629.227 262.123L629.016 261.672C632.017 260.266 635.017 258.875 638.016 257.501L638.225 257.956C641.223 256.583 644.219 255.225 647.213 253.884L647.01 253.428C650.046 252.069 653.081 250.725 656.113 249.399L656.313 249.856C659.35 248.527 662.385 247.215 665.418 245.919L665.221 245.459C668.255 244.163 671.287 242.883 674.317 241.62L674.509 242.081C677.578 240.801 680.644 239.538 683.708 238.292L683.52 237.83C686.593 236.58 689.663 235.346 692.73 234.131L692.914 234.596C695.98 233.381 699.042 232.183 702.102 231.002L701.923 230.536C705.027 229.338 708.128 228.156 711.226 226.993L711.401 227.46C714.505 226.294 717.606 225.146 720.703 224.015L720.531 223.546C723.63 222.415 726.725 221.303 729.815 220.207L729.981 220.677C733.119 219.564 736.253 218.469 739.383 217.393L739.221 216.921C742.357 215.842 745.489 214.781 748.616 213.739L748.773 214.213C751.899 213.171 755.02 212.148 758.135 211.143L757.981 210.667C761.157 209.643 764.328 208.638 767.493 207.652L767.642 208.128C770.805 207.143 773.962 206.176 777.113 205.228L776.97 204.75C780.133 203.799 783.289 202.867 786.439 201.954L786.578 202.433C789.78 201.506 792.975 200.598 796.163 199.71L796.029 199.229C799.219 198.34 802.402 197.472 805.577 196.623L805.706 197.106C808.905 196.251 812.096 195.417 815.28 194.603L815.156 194.119C818.383 193.293 821.603 192.487 824.814 191.703L824.813 191.705L824.932 192.19C828.141 191.407 831.342 190.644 834.534 189.903L834.421 189.416L834.421 189.414C836.632 188.901 838.839 188.398 841.041 187.905L844.113 187.222L844.221 187.71C847.466 186.995 850.702 186.302 853.927 185.631L853.825 185.141C857.053 184.469 860.27 183.819 863.478 183.191L863.573 183.683C866.853 183.04 870.122 182.421 873.38 181.824L873.289 181.332C876.55 180.735 879.8 180.161 883.038 179.61L883.122 180.103C886.388 179.547 889.643 179.014 892.885 178.505L892.808 178.011C896.102 177.494 899.384 177.001 902.652 176.532L902.723 177.026C905.99 176.558 909.243 176.113 912.482 175.693L912.418 175.197C915.731 174.767 919.03 174.363 922.314 173.983L922.37 174.48C925.666 174.099 928.946 173.743 932.211 173.413L932.161 172.916C935.461 172.583 938.745 172.275 942.013 171.994L942.056 172.493C945.379 172.207 948.685 171.948 951.974 171.716L951.94 171.218C955.231 170.986 958.506 170.78 961.763 170.602L961.789 171.101C965.131 170.918 968.455 170.763 971.76 170.638L971.741 170.139C975.054 170.012 978.347 169.915 981.621 169.846L981.63 170.345C984.959 170.275 988.268 170.234 991.555 170.223L991.553 169.724C994.882 169.713 998.19 169.734 1001.47 169.784L1001.47 170.282C1004.78 170.332 1008.07 170.413 1011.34 170.525L1011.36 170.026C1014.7 170.141 1018.01 170.289 1021.3 170.468L1021.28 170.966C1024.58 171.146 1027.85 171.359 1031.1 171.604L1031.14 171.107C1034.48 171.359 1037.8 171.645 1041.08 171.967L1041.03 172.464C1044.32 172.785 1047.57 173.141 1050.8 173.531L1050.86 173.034C1054.19 173.437 1057.5 173.877 1060.77 174.353L1060.7 174.848C1063.97 175.324 1067.21 175.837 1070.41 176.387L1070.5 175.895C1073.8 176.463 1077.07 177.07 1080.31 177.715L1080.21 178.204C1083.46 178.85 1086.66 179.537 1089.83 180.263L1089.95 179.776C1093.22 180.525 1096.45 181.315 1099.64 182.147L1099.51 182.629C1102.71 183.463 1105.87 184.339 1108.99 185.256L1109.13 184.777C1112.35 185.725 1115.52 186.716 1118.66 187.754L1118.66 187.755L1118.5 188.229C1121.64 189.269 1124.73 190.355 1127.78 191.485L1127.95 191.018C1131.1 192.183 1134.19 193.397 1137.24 194.659L1137.05 195.119C1140.11 196.388 1143.12 197.705 1146.08 199.071L1146.29 198.618C1149.32 200.017 1152.3 201.469 1155.22 202.971L1155 203.414C1157.95 204.932 1160.85 206.502 1163.69 208.124L1163.94 207.691C1166.82 209.34 1169.65 211.043 1172.42 212.8L1172.15 213.221C1174.96 215.004 1177.7 216.844 1180.38 218.738L1180.67 218.332C1183.37 220.245 1186.01 222.214 1188.59 224.24L1188.28 224.632C1190.89 226.688 1193.43 228.802 1195.9 230.975L1196.23 230.6C1198.72 232.79 1201.14 235.038 1203.48 237.347L1203.13 237.703C1205.48 240.022 1207.76 242.4 1209.97 244.839L1210.34 244.505C1212.55 246.959 1214.7 249.475 1216.76 252.052L1216.37 252.364C1218.43 254.935 1220.41 257.567 1222.31 260.26L1222.72 259.973C1224.62 262.666 1226.45 265.421 1228.19 268.237L1227.77 268.498C1228.63 269.901 1229.48 271.32 1230.31 272.754C1231.14 274.188 1231.94 275.631 1232.72 277.085L1233.16 276.85C1234.73 279.766 1236.2 282.722 1237.58 285.716L1237.13 285.924C1238.51 288.918 1239.8 291.95 1241 295.019L1241.46 294.838C1242.66 297.914 1243.77 301.027 1244.79 304.176L1244.31 304.33C1245.32 307.458 1246.24 310.622 1247.07 313.82L1247.56 313.693C1248.38 316.877 1249.12 320.095 1249.78 323.345L1249.29 323.444C1249.93 326.669 1250.49 329.926 1250.97 333.214L1251.46 333.142C1251.93 336.383 1252.32 339.654 1252.62 342.953L1252.12 342.999C1252.43 346.268 1252.65 349.564 1252.79 352.887L1253.28 352.865C1253.42 356.139 1253.48 359.44 1253.47 362.764L1252.97 362.762C1252.96 366.033 1252.87 369.328 1252.7 372.645L1253.2 372.669C1253.04 375.952 1252.81 379.257 1252.5 382.584L1252.01 382.539C1251.71 385.785 1251.34 389.052 1250.91 392.338L1251.41 392.403C1250.98 395.672 1250.48 398.96 1249.92 402.265L1249.43 402.182C1248.88 405.387 1248.27 408.609 1247.6 411.847L1248.09 411.947C1247.43 415.179 1246.7 418.426 1245.91 421.688L1245.42 421.571C1244.66 424.73 1243.84 427.904 1242.96 431.09L1243.44 431.221C1242.57 434.402 1241.63 437.595 1240.65 440.801L1240.17 440.655C1239.21 443.764 1238.21 446.884 1237.14 450.016L1237.62 450.175C1236.56 453.301 1235.45 456.438 1234.28 459.584L1233.82 459.412C1232.69 462.464 1231.51 465.526 1230.29 468.596L1230.76 468.78C1229.53 471.851 1228.26 474.931 1226.94 478.019L1226.95 478.02L1226.49 477.824C1225.21 480.814 1223.89 483.811 1222.53 486.816L1222.98 487.022C1221.61 490.03 1220.2 493.044 1218.75 496.065L1218.3 495.849C1216.89 498.785 1215.44 501.727 1213.94 504.674L1214.39 504.899C1212.9 507.838 1211.37 510.783 1209.8 513.732L1209.36 513.499C1207.82 516.386 1206.25 519.278 1204.63 522.173L1205.07 522.416C1203.47 525.286 1201.83 528.16 1200.16 531.037L1199.73 530.786C1198.07 533.628 1196.38 536.473 1194.66 539.321L1195.08 539.579C1193.39 542.379 1191.66 545.182 1189.89 547.987L1189.47 547.722C1187.71 550.521 1185.91 553.322 1184.08 556.125L1184.5 556.398C1182.72 559.129 1180.9 561.862 1179.06 564.597L1178.64 564.318C1176.8 567.05 1174.92 569.784 1173.01 572.519L1173.42 572.804C1171.54 575.494 1169.64 578.185 1167.7 580.876L1167.7 580.877L1167.29 580.584C1165.37 583.247 1163.43 585.911 1161.45 588.574L1161.85 588.871C1159.88 591.525 1157.88 594.179 1155.85 596.833L1155.45 596.531C1153.47 599.127 1151.46 601.721 1149.42 604.316L1149.81 604.623C1147.77 607.219 1145.7 609.815 1143.61 612.41L1143.22 612.096C1141.16 614.649 1139.07 617.202 1136.95 619.752L1137.34 620.071C1135.24 622.6 1133.12 625.127 1130.97 627.653L1130.97 627.653L1130.59 627.33C1128.45 629.853 1126.28 632.374 1124.08 634.893L1124.46 635.22C1122.31 637.684 1120.14 640.145 1117.94 642.605L1117.94 642.605L1117.57 642.273C1115.37 644.73 1113.16 647.186 1110.91 649.638L1111.28 649.974C1109.06 652.41 1106.81 654.843 1104.54 657.272L1104.54 657.273L1104.17 656.931C1101.93 659.325 1099.67 661.716 1097.39 664.103L1097.75 664.448L1097.75 664.448C1095.47 666.837 1093.16 669.221 1090.83 671.604L1090.83 671.605L1090.48 671.255C1088.18 673.605 1085.86 675.952 1083.52 678.295L1083.87 678.647C1081.55 680.973 1079.21 683.295 1076.84 685.613L1076.49 685.257C1074.13 687.574 1071.75 689.887 1069.34 692.196L1069.69 692.556C1067.32 694.828 1064.94 697.096 1062.53 699.359L1062.19 698.996C1059.79 701.251 1057.38 703.503 1054.94 705.749L1055.28 706.114C1052.84 708.362 1050.39 710.606 1047.91 712.844L1047.91 712.845L1047.58 712.474C1045.15 714.669 1042.7 716.861 1040.24 719.046L1040.57 719.419C1038.1 721.606 1035.62 723.787 1033.12 725.964L1032.79 725.589C1030.29 727.761 1027.78 729.927 1025.24 732.089L1025.57 732.469C1023.08 734.596 1020.57 736.719 1018.04 738.836L1018.04 738.838L1017.71 738.455C1015.19 740.571 1012.64 742.683 1010.08 744.788L1010.4 745.173C1007.84 747.274 1005.27 749.37 1002.68 751.459L1002.36 751.072C999.811 753.131 997.243 755.184 994.658 757.231L994.967 757.622C992.38 759.671 989.778 761.713 987.159 763.749L986.853 763.356C984.242 765.386 981.615 767.41 978.973 769.428L979.275 769.824C976.666 771.816 974.042 773.803 971.402 775.782L971.403 775.783L971.102 775.382C968.464 777.36 965.81 779.332 963.141 781.298L963.437 781.699C960.771 783.662 958.09 785.618 955.395 787.568L955.103 787.164C952.444 789.087 949.77 791.003 947.082 792.913L947.371 793.32C944.682 795.23 941.978 797.133 939.26 799.029L938.974 798.621C936.258 800.516 933.528 802.404 930.784 804.285L931.067 804.696Z" stroke="white" stroke-opacity="0.07" stroke-dasharray="10 10" shape-rendering="crispEdges"/>
</g>
<g filter="url(#filter1_d_1_865)">
<path d="M1488.7 549.095C1532 624.096 1511.39 726.684 1442.77 832.02C1374.16 937.329 1257.66 1045.25 1109.51 1130.78C961.353 1216.32 809.642 1263.26 684.14 1270.01C558.607 1276.77 459.456 1243.33 416.154 1168.33C372.852 1093.33 393.468 990.741 462.088 885.406C530.69 780.096 647.193 672.179 795.346 586.642C943.5 501.106 1095.21 454.169 1220.71 447.413C1346.25 440.655 1445.4 474.094 1488.7 549.095Z" stroke="white" stroke-opacity="0.07" shape-rendering="crispEdges"/>
</g>
<defs>
<filter id="filter0_d_1_865" x="130.6" y="169.721" width="1126.87" height="833.301" filterUnits="userSpaceOnUse" color-interpolation-filters="sRGB">
<feFlood flood-opacity="0" result="BackgroundImageFix"/>
<feColorMatrix in="SourceAlpha" type="matrix" values="0 0 0 0 0 0 0 0 0 0 0 0 0 0 0 0 0 0 127 0" result="hardAlpha"/>
<feOffset dy="4"/>
<feGaussianBlur stdDeviation="2"/>
<feComposite in2="hardAlpha" operator="out"/>
<feColorMatrix type="matrix" values="0 0 0 0 0 0 0 0 0 0 0 0 0 0 0 0 0 0 0.25 0"/>
<feBlend mode="normal" in2="BackgroundImageFix" result="effect1_dropShadow_1_865"/>
<feBlend mode="normal" in="SourceGraphic" in2="effect1_dropShadow_1_865" result="shape"/>
</filter>
<filter id="filter1_d_1_865" x="388.99" y="446.062" width="1126.87" height="833.301" filterUnits="userSpaceOnUse" color-interpolation-filters="sRGB">
<feFlood flood-opacity="0" result="BackgroundImageFix"/>
<feColorMatrix in="SourceAlpha" type="matrix" values="0 0 0 0 0 0 0 0 0 0 0 0 0 0 0 0 0 0 127 0" result="hardAlpha"/>
<feOffset dy="4"/>
<feGaussianBlur stdDeviation="2"/>
<feComposite in2="hardAlpha" operator="out"/>
<feColorMatrix type="matrix" values="0 0 0 0 0 0 0 0 0 0 0 0 0 0 0 0 0 0 0.25 0"/>
<feBlend mode="normal" in2="BackgroundImageFix" result="effect1_dropShadow_1_865"/>
<feBlend mode="normal" in="SourceGraphic" in2="effect1_dropShadow_1_865" result="shape"/>
</filter>
</defs>
</svg>
