<svg width="388" height="334" viewBox="0 0 388 334" fill="none" xmlns="http://www.w3.org/2000/svg">
<g clip-path="url(#clip0_1_276)">
<path d="M304.625 -28.5969C332.177 -28.5968 357.309 -6.93782 375.597 28.5056C393.866 63.9107 405.187 112.875 405.187 167C405.187 221.125 393.866 270.089 375.597 305.494C357.309 340.937 332.177 362.596 304.625 362.596C277.073 362.596 251.941 340.937 233.652 305.494C215.383 270.089 204.061 221.125 204.061 167C204.061 112.875 215.383 63.9108 233.652 28.5056C251.941 -6.93786 277.073 -28.5969 304.625 -28.5969Z" stroke="white" stroke-width="1.5"/>
<path d="M304.625 -28.5969C332.177 -28.5968 357.309 -6.93782 375.597 28.5056C393.866 63.9107 405.187 112.875 405.187 167C405.187 221.125 393.866 270.089 375.597 305.494C357.309 340.937 332.177 362.596 304.625 362.596C277.073 362.596 251.941 340.937 233.652 305.494C215.383 270.089 204.061 221.125 204.061 167C204.061 112.875 215.383 63.9108 233.652 28.5056C251.941 -6.93786 277.073 -28.5969 304.625 -28.5969Z" stroke="url(#paint0_linear_1_276)" stroke-width="1.5"/>
<path d="M270.895 -28.5969C280.356 -28.5969 289.468 -23.2758 297.852 -13.4309C306.234 -3.58883 313.816 10.6972 320.198 28.4158C332.96 63.8466 340.868 112.843 340.868 167C340.868 221.156 332.96 270.153 320.198 305.584C313.816 323.302 306.234 337.588 297.852 347.43C289.468 357.275 280.356 362.596 270.895 362.596C261.434 362.596 252.322 357.275 243.938 347.43C235.557 337.588 227.975 323.302 221.593 305.584C208.831 270.153 200.923 221.156 200.923 167C200.923 112.843 208.831 63.8466 221.593 28.4158C227.975 10.6972 235.557 -3.58883 243.938 -13.4309C252.322 -23.2758 261.434 -28.5969 270.895 -28.5969Z" stroke="white" stroke-width="1.5"/>
<path d="M270.895 -28.5969C280.356 -28.5969 289.468 -23.2758 297.852 -13.4309C306.234 -3.58883 313.816 10.6972 320.198 28.4158C332.96 63.8466 340.868 112.843 340.868 167C340.868 221.156 332.96 270.153 320.198 305.584C313.816 323.302 306.234 337.588 297.852 347.43C289.468 357.275 280.356 362.596 270.895 362.596C261.434 362.596 252.322 357.275 243.938 347.43C235.557 337.588 227.975 323.302 221.593 305.584C208.831 270.153 200.923 221.156 200.923 167C200.923 112.843 208.831 63.8466 221.593 28.4158C227.975 10.6972 235.557 -3.58883 243.938 -13.4309C252.322 -23.2758 261.434 -28.5969 270.895 -28.5969Z" stroke="url(#paint1_linear_1_276)" stroke-width="1.5"/>
<path d="M117.101 -28.5969C126.562 -28.5969 135.674 -23.2758 144.058 -13.4309C152.439 -3.58883 160.021 10.6972 166.403 28.4158C179.165 63.8466 187.073 112.843 187.073 167C187.073 221.156 179.165 270.153 166.403 305.584C160.021 323.302 152.439 337.588 144.058 347.43C135.674 357.275 126.562 362.596 117.101 362.596C107.64 362.596 98.5275 357.275 90.1436 347.43C81.7622 337.588 74.18 323.302 67.7979 305.584C55.036 270.153 47.128 221.156 47.128 167C47.128 112.843 55.036 63.8466 67.7979 28.4158C74.18 10.6972 81.7622 -3.58883 90.1436 -13.4309C98.5275 -23.2758 107.64 -28.5969 117.101 -28.5969Z" stroke="white" stroke-width="1.5"/>
<path d="M117.101 -28.5969C126.562 -28.5969 135.674 -23.2758 144.058 -13.4309C152.439 -3.58883 160.021 10.6972 166.403 28.4158C179.165 63.8466 187.073 112.843 187.073 167C187.073 221.156 179.165 270.153 166.403 305.584C160.021 323.302 152.439 337.588 144.058 347.43C135.674 357.275 126.562 362.596 117.101 362.596C107.64 362.596 98.5275 357.275 90.1436 347.43C81.7622 337.588 74.18 323.302 67.7979 305.584C55.036 270.153 47.128 221.156 47.128 167C47.128 112.843 55.036 63.8466 67.7979 28.4158C74.18 10.6972 81.7622 -3.58883 90.1436 -13.4309C98.5275 -23.2758 107.64 -28.5969 117.101 -28.5969Z" stroke="url(#paint2_linear_1_276)" stroke-width="1.5"/>
<path d="M233.442 -28.5969C235.67 -28.5969 237.947 -27.3862 240.249 -24.8538C242.55 -22.3229 244.805 -18.5473 246.975 -13.6155C251.311 -3.75701 255.233 10.5555 258.534 28.2986C265.134 63.7728 269.221 112.812 269.221 167C269.221 221.188 265.134 270.227 258.534 305.701C255.233 323.444 251.311 337.757 246.975 347.615C244.805 352.547 242.55 356.322 240.249 358.853C237.947 361.386 235.67 362.596 233.442 362.596C231.214 362.596 228.938 361.386 226.636 358.853C224.335 356.322 222.08 352.547 219.911 347.615C215.575 337.757 211.652 323.444 208.352 305.701C201.752 270.227 197.665 221.188 197.665 167C197.665 112.812 201.752 63.7728 208.352 28.2986C211.652 10.5555 215.575 -3.75701 219.911 -13.6155C222.08 -18.5472 224.335 -22.3229 226.636 -24.8538C228.938 -27.3863 231.214 -28.5968 233.442 -28.5969Z" stroke="white" stroke-width="1.5"/>
<path d="M233.442 -28.5969C235.67 -28.5969 237.947 -27.3862 240.249 -24.8538C242.55 -22.3229 244.805 -18.5473 246.975 -13.6155C251.311 -3.75701 255.233 10.5555 258.534 28.2986C265.134 63.7728 269.221 112.812 269.221 167C269.221 221.188 265.134 270.227 258.534 305.701C255.233 323.444 251.311 337.757 246.975 347.615C244.805 352.547 242.55 356.322 240.249 358.853C237.947 361.386 235.67 362.596 233.442 362.596C231.214 362.596 228.938 361.386 226.636 358.853C224.335 356.322 222.08 352.547 219.911 347.615C215.575 337.757 211.652 323.444 208.352 305.701C201.752 270.227 197.665 221.188 197.665 167C197.665 112.812 201.752 63.7728 208.352 28.2986C211.652 10.5555 215.575 -3.75701 219.911 -13.6155C222.08 -18.5472 224.335 -22.3229 226.636 -24.8538C228.938 -27.3863 231.214 -28.5968 233.442 -28.5969Z" stroke="url(#paint3_linear_1_276)" stroke-width="1.5"/>
<path d="M154.558 -28.5969C156.786 -28.5969 159.062 -27.3862 161.364 -24.8538C163.665 -22.3229 165.921 -18.5473 168.09 -13.6155C172.426 -3.75701 176.349 10.5555 179.649 28.2986C186.249 63.7728 190.336 112.812 190.336 167C190.336 221.188 186.249 270.227 179.649 305.701C176.349 323.444 172.426 337.757 168.09 347.615C165.921 352.547 163.665 356.322 161.364 358.853C159.062 361.386 156.786 362.596 154.558 362.596C152.33 362.596 150.053 361.386 147.751 358.853C145.45 356.322 143.196 352.547 141.026 347.615C136.69 337.757 132.768 323.444 129.467 305.701C122.867 270.227 118.78 221.188 118.78 167C118.78 112.812 122.867 63.7728 129.467 28.2986C132.768 10.5555 136.69 -3.75701 141.026 -13.6155C143.196 -18.5472 145.45 -22.3229 147.751 -24.8538C150.053 -27.3863 152.33 -28.5968 154.558 -28.5969Z" stroke="white" stroke-width="1.5"/>
<path d="M154.558 -28.5969C156.786 -28.5969 159.062 -27.3862 161.364 -24.8538C163.665 -22.3229 165.921 -18.5473 168.09 -13.6155C172.426 -3.75701 176.349 10.5555 179.649 28.2986C186.249 63.7728 190.336 112.812 190.336 167C190.336 221.188 186.249 270.227 179.649 305.701C176.349 323.444 172.426 337.757 168.09 347.615C165.921 352.547 163.665 356.322 161.364 358.853C159.062 361.386 156.786 362.596 154.558 362.596C152.33 362.596 150.053 361.386 147.751 358.853C145.45 356.322 143.196 352.547 141.026 347.615C136.69 337.757 132.768 323.444 129.467 305.701C122.867 270.227 118.78 221.188 118.78 167C118.78 112.812 122.867 63.7728 129.467 28.2986C132.768 10.5555 136.69 -3.75701 141.026 -13.6155C143.196 -18.5472 145.45 -22.3229 147.751 -24.8538C150.053 -27.3863 152.33 -28.5968 154.558 -28.5969Z" stroke="url(#paint4_linear_1_276)" stroke-width="1.5"/>
<path d="M83.3754 362.597C55.8233 362.597 30.6912 340.938 12.4027 305.495C-5.86601 270.09 -17.1871 221.126 -17.1871 167.001C-17.1871 112.876 -5.86599 63.9116 12.4027 28.5065C30.6912 -6.93698 55.8234 -28.5959 83.3754 -28.5961C110.927 -28.5961 136.059 -6.93701 154.348 28.5065C172.617 63.9116 183.939 112.876 183.939 167.001C183.939 221.126 172.617 270.09 154.348 305.495C136.059 340.938 110.927 362.597 83.3754 362.597Z" stroke="white" stroke-width="1.5"/>
<path d="M83.3754 362.597C55.8233 362.597 30.6912 340.938 12.4027 305.495C-5.86601 270.09 -17.1871 221.126 -17.1871 167.001C-17.1871 112.876 -5.86599 63.9116 12.4027 28.5065C30.6912 -6.93698 55.8234 -28.5959 83.3754 -28.5961C110.927 -28.5961 136.059 -6.93701 154.348 28.5065C172.617 63.9116 183.939 112.876 183.939 167.001C183.939 221.126 172.617 270.09 154.348 305.495C136.059 340.938 110.927 362.597 83.3754 362.597Z" stroke="url(#paint5_linear_1_276)" stroke-width="1.5"/>
<line x1="193.978" y1="-2.16528" x2="193.978" y2="336.807" stroke="white" stroke-width="1.5" stroke-dasharray="6 6"/>
<line x1="193.978" y1="-2.16528" x2="193.978" y2="336.807" stroke="url(#paint6_linear_1_276)" stroke-width="1.5" stroke-dasharray="6 6"/>
</g>
<defs>
<linearGradient id="paint0_linear_1_276" x1="178.791" y1="83.7612" x2="295.511" y2="283.465" gradientUnits="userSpaceOnUse">
<stop stop-color="#19ABFF"/>
<stop offset="1" stop-color="#2B95FF"/>
</linearGradient>
<linearGradient id="paint1_linear_1_276" x1="157.701" y1="101.067" x2="235.555" y2="265.63" gradientUnits="userSpaceOnUse">
<stop stop-color="#19ABFF"/>
<stop offset="1" stop-color="#2B95FF"/>
</linearGradient>
<linearGradient id="paint2_linear_1_276" x1="150.15" y1="32.2377" x2="-2.3183" y2="83.4235" gradientUnits="userSpaceOnUse">
<stop stop-color="#19ABFF"/>
<stop offset="1" stop-color="#2B95FF"/>
</linearGradient>
<linearGradient id="paint3_linear_1_276" x1="42.759" y1="138.517" x2="47.0123" y2="195.627" gradientUnits="userSpaceOnUse">
<stop stop-color="#19ABFF"/>
<stop offset="1" stop-color="#2B95FF"/>
</linearGradient>
<linearGradient id="paint4_linear_1_276" x1="171.628" y1="32.2377" x2="86.5613" y2="46.9878" gradientUnits="userSpaceOnUse">
<stop stop-color="#19ABFF"/>
<stop offset="1" stop-color="#2B95FF"/>
</linearGradient>
<linearGradient id="paint5_linear_1_276" x1="162.472" y1="59.3266" x2="-34.9105" y2="154.252" gradientUnits="userSpaceOnUse">
<stop stop-color="#19ABFF"/>
<stop offset="1" stop-color="#2B95FF"/>
</linearGradient>
<linearGradient id="paint6_linear_1_276" x1="192.801" y1="-717.438" x2="192.654" y2="-717.438" gradientUnits="userSpaceOnUse">
<stop stop-color="#19ABFF"/>
<stop offset="1" stop-color="#2B95FF"/>
</linearGradient>
<clipPath id="clip0_1_276">
<rect width="388" height="334" fill="white"/>
</clipPath>
</defs>
</svg>
