<svg width="388" height="334" viewBox="0 0 388 334" fill="none" xmlns="http://www.w3.org/2000/svg">
<g clip-path="url(#clip0_1_267)">
<path d="M236.204 41.8507C193.637 84.4174 163.002 130.733 147.837 171.139C132.609 211.713 133.21 245.605 151.797 264.192C170.385 282.779 204.276 283.38 244.851 268.152C285.257 252.988 331.572 222.352 374.139 179.786C416.705 137.219 447.34 90.9046 462.504 50.4986C477.732 9.92412 477.132 -23.9675 458.544 -42.5548L459.824 -43.8344L460.719 -42.9139C497.733 -3.77643 460.755 94.7526 377.411 179.061L375.418 181.065C290.006 266.478 189.314 304.268 150.518 265.472L149.622 264.551C112.315 225.103 150.179 125.316 234.924 40.5712L236.928 38.5785C321.906 -45.4266 421.33 -82.3274 459.824 -43.8344L458.544 -42.5548C439.957 -61.142 406.065 -61.743 365.491 -46.5151C325.085 -31.3506 278.77 -0.715708 236.204 41.8507Z" fill="white"/>
<path d="M236.204 41.8507C193.637 84.4174 163.002 130.733 147.837 171.139C132.609 211.713 133.21 245.605 151.797 264.192C170.385 282.779 204.276 283.38 244.851 268.152C285.257 252.988 331.572 222.352 374.139 179.786C416.705 137.219 447.34 90.9046 462.504 50.4986C477.732 9.92412 477.132 -23.9675 458.544 -42.5548L459.824 -43.8344L460.719 -42.9139C497.733 -3.77643 460.755 94.7526 377.411 179.061L375.418 181.065C290.006 266.478 189.314 304.268 150.518 265.472L149.622 264.551C112.315 225.103 150.179 125.316 234.924 40.5712L236.928 38.5785C321.906 -45.4266 421.33 -82.3274 459.824 -43.8344L458.544 -42.5548C439.957 -61.142 406.065 -61.743 365.491 -46.5151C325.085 -31.3506 278.77 -0.715708 236.204 41.8507Z" fill="url(#paint0_linear_1_267)"/>
<path d="M135.326 79.0371C177.893 121.604 208.528 167.919 223.693 208.325C238.921 248.899 238.32 282.791 219.733 301.378C201.145 319.966 167.254 320.567 126.679 305.339C86.2732 290.174 39.9581 259.539 -2.60858 216.972C-45.1751 174.405 -75.8099 128.091 -90.9745 87.685C-106.202 47.1105 -105.601 13.2189 -87.0141 -5.36841L-88.2937 -6.64799L-89.1892 -5.72747C-126.203 33.41 -89.2245 131.939 -5.88081 216.247L-3.88815 218.252C81.5243 303.664 182.216 341.454 221.012 302.658L221.908 301.737C259.215 262.289 221.351 162.503 136.606 77.7576L134.602 75.7649C49.6243 -8.24015 -49.8004 -45.141 -88.2937 -6.64799L-87.0141 -5.36841C-68.4268 -23.9556 -34.5351 -24.5566 6.03932 -9.32874C46.4452 5.83585 92.7598 36.4707 135.326 79.0371Z" fill="white"/>
<path d="M135.326 79.0371C177.893 121.604 208.528 167.919 223.693 208.325C238.921 248.899 238.32 282.791 219.733 301.378C201.145 319.966 167.254 320.567 126.679 305.339C86.2732 290.174 39.9581 259.539 -2.60858 216.972C-45.1751 174.405 -75.8099 128.091 -90.9745 87.685C-106.202 47.1105 -105.601 13.2189 -87.0141 -5.36841L-88.2937 -6.64799L-89.1892 -5.72747C-126.203 33.41 -89.2245 131.939 -5.88081 216.247L-3.88815 218.252C81.5243 303.664 182.216 341.454 221.012 302.658L221.908 301.737C259.215 262.289 221.351 162.503 136.606 77.7576L134.602 75.7649C49.6243 -8.24015 -49.8004 -45.141 -88.2937 -6.64799L-87.0141 -5.36841C-68.4268 -23.9556 -34.5351 -24.5566 6.03932 -9.32874C46.4452 5.83585 92.7598 36.4707 135.326 79.0371Z" fill="url(#paint1_linear_1_267)"/>
<path d="M-10.765 -65.3224C-11.8229 -64.7151 -12.8595 -64.0657 -13.8725 -63.3738C-14.8854 -62.6818 -15.8672 -61.9523 -16.8178 -61.1877L-15.6836 -59.7781C-14.7697 -60.5132 -13.8257 -61.2142 -12.8517 -61.8795C-11.8778 -62.5448 -10.8815 -63.1693 -9.86435 -63.7533L-10.765 -65.3224ZM-25.174 -49.4285C-23.8333 -51.3968 -22.3788 -53.2413 -20.8111 -54.9571L-22.147 -56.1776C-23.7746 -54.396 -25.2819 -52.4839 -26.6691 -50.4475L-25.174 -49.4285ZM2.82233 -70.5935C0.420897 -70.0419 -1.90844 -69.3331 -4.1599 -68.4648L-3.50884 -66.7765C-1.34042 -67.6129 0.906905 -68.2971 3.22784 -68.8303L2.82233 -70.5935ZM-31.6199 -36.8528C-30.7667 -39.1141 -29.8161 -41.2771 -28.7673 -43.3371L-29.5742 -43.7476L-30.3801 -44.1587C-31.4607 -42.0363 -32.4376 -39.8112 -33.313 -37.4911L-32.4669 -37.1716L-31.6199 -36.8528ZM17.2967 -71.1659L17.3077 -72.0708C14.8281 -72.0991 12.4001 -71.9983 10.0301 -71.7635L10.119 -70.8626L10.2089 -69.9624C12.5092 -70.1903 14.87 -70.2892 17.2866 -70.2616L17.2967 -71.1659ZM-35.3831 -23.182C-34.9353 -25.5668 -34.4068 -27.8776 -33.7971 -30.1108L-35.5436 -30.5871C-36.1667 -28.3045 -36.7059 -25.946 -37.1622 -23.5161L-35.3831 -23.182ZM31.7257 -70.5745C29.296 -71.0331 26.9024 -71.3877 24.5493 -71.6374L24.3588 -69.838C26.6608 -69.5938 29.0056 -69.2458 31.39 -68.7956L31.7257 -70.5745ZM-37.0527 -9.02804C-36.9181 -11.4542 -36.7167 -13.8251 -36.4475 -16.1372L-38.2451 -16.346C-38.5188 -13.9961 -38.724 -11.5892 -38.8606 -9.1285L-37.0527 -9.02804ZM45.7459 -66.9244C43.404 -67.692 41.0872 -68.3761 38.7987 -68.9758L38.3395 -67.2253C40.5912 -66.6353 42.873 -65.9606 45.182 -65.2038L45.7459 -66.9244ZM-37.1031 5.25108C-37.2108 2.82757 -37.2621 0.446075 -37.2563 -1.8907L-38.1612 -1.89322L-39.0654 -1.89475C-39.0712 0.471296 -39.0191 2.88081 -38.9102 5.33133L-37.1031 5.25108ZM58.867 -60.8853L59.2337 -61.7122C56.9906 -62.7049 54.765 -63.6296 52.5588 -64.4846L52.2314 -63.6418L51.9047 -62.7979C54.0836 -61.9535 56.2834 -61.0397 58.5018 -60.058L58.867 -60.8853ZM-35.8802 19.4894C-36.1798 17.0868 -36.4319 14.7166 -36.634 12.3812L-38.4366 12.5368C-38.2326 14.8958 -37.9786 17.2888 -37.6762 19.7132L-36.7785 19.6008L-35.8802 19.4894ZM71.751 -54.5373L72.1822 -55.3326C70.0337 -56.496 67.8969 -57.6028 65.7737 -58.6508L64.9721 -57.0275C67.0743 -55.9899 69.1914 -54.8939 71.3205 -53.741L71.751 -54.5373ZM-33.6302 33.6167C-34.087 31.2416 -34.5006 28.8918 -34.8718 26.5692L-36.659 26.8541C-36.2847 29.1961 -35.8672 31.5653 -35.4069 33.9586L-34.5187 33.7885L-33.6302 33.6167ZM84.627 -48.0383C82.5649 -49.3374 80.5098 -50.5879 78.4642 -51.7883L77.5489 -50.2271C79.5776 -49.0367 81.616 -47.7968 83.6624 -46.5076L84.627 -48.0383ZM-30.518 47.6088C-31.1079 45.2625 -31.6595 42.9359 -32.1729 40.631L-33.9389 41.0241C-33.4218 43.3454 -32.8665 45.6879 -32.2727 48.0498L-30.518 47.6088ZM96.0884 -39.2574L96.6137 -39.9944C94.6295 -41.4064 92.6492 -42.7756 90.6749 -44.1014L89.6665 -42.5993C91.6269 -41.2829 93.5936 -39.923 95.5647 -38.5202L96.0884 -39.2574ZM-26.6781 61.409C-27.3791 59.1064 -28.0454 56.8188 -28.678 54.5485L-30.4217 55.0348C-29.7852 57.3192 -29.1134 59.62 -28.4082 61.936L-27.543 61.6717L-26.6781 61.409ZM107.583 -30.6348L108.144 -31.3447C106.243 -32.8438 104.343 -34.3056 102.446 -35.7293L101.36 -34.2825C103.245 -32.8677 105.133 -31.4143 107.023 -29.9239L107.583 -30.6348ZM-22.1998 75.0158C-23.0032 72.7418 -23.7744 70.4793 -24.5149 68.2307L-26.2338 68.7972C-25.4892 71.0583 -24.7129 73.3325 -23.9053 75.6186L-22.1998 75.0158ZM119.252 -22.1743C117.416 -23.758 115.58 -25.3081 113.744 -26.824L112.592 -25.4288C114.417 -23.9214 116.243 -22.3794 118.069 -20.8041L119.252 -22.1743ZM-17.1459 88.4418C-18.0383 86.206 -18.9022 83.9789 -19.7368 81.7625L-21.4305 82.4015C-20.5916 84.6291 -19.7228 86.8664 -18.8261 89.1131L-17.1459 88.4418ZM129.975 -12.5355C128.209 -14.1879 126.44 -15.8101 124.67 -17.4016L124.065 -16.7288L123.459 -16.057C125.221 -14.4735 126.981 -12.8589 128.739 -11.2144L129.975 -12.5355ZM-11.5846 101.65C-12.56 99.4476 -13.5083 97.2517 -14.4297 95.0642L-16.0972 95.7666C-15.1713 97.9646 -14.2181 100.171 -13.2383 102.383L-11.5846 101.65ZM140.305 -2.50468C138.6 -4.22193 136.892 -5.91207 135.181 -7.57381L133.92 -6.27601C135.623 -4.62215 137.323 -2.93949 139.02 -1.23013L140.305 -2.50468ZM-5.54662 114.658C-6.59409 112.499 -7.6171 110.345 -8.61447 108.197L-9.43396 108.578L-10.2551 108.96C-9.25341 111.117 -8.22633 113.28 -7.17448 115.447L-5.54662 114.658ZM150.269 7.89492C148.633 6.12688 146.992 4.38363 145.346 2.66601L144.693 3.2923L144.039 3.91696C145.678 5.62722 147.312 7.3635 148.942 9.12418L150.269 7.89492ZM0.935183 127.465C-0.187846 125.334 -1.28776 123.205 -2.36317 121.081L-3.97766 121.898C-2.89774 124.032 -1.79322 126.169 -0.665608 128.309L0.13446 127.886L0.935183 127.465ZM159.199 19.227L159.883 18.6354C158.3 16.8067 156.71 15.0013 155.115 13.2194L153.766 14.4261C155.355 16.2005 156.938 17.9985 158.515 19.8197L159.199 19.227ZM7.81621 140.034C6.63002 137.946 5.46622 135.859 4.32483 133.774L3.5308 134.21L2.73708 134.643C3.88299 136.736 5.05165 138.832 6.24247 140.928L7.03015 140.481L7.81621 140.034ZM168.424 30.2307L169.126 29.6594C167.607 27.7878 166.08 25.9372 164.547 24.1087L163.853 24.691L163.16 25.2716C164.687 27.093 166.208 28.9361 167.721 30.8003L168.424 30.2307ZM15.0959 152.399C13.8474 150.35 12.6202 148.302 11.4143 146.253L10.6343 146.714L9.85457 147.172C11.0651 149.228 12.2973 151.284 13.5505 153.341L15.0959 152.399ZM178.032 40.981C176.572 39.0659 175.104 37.1703 173.629 35.295L172.918 35.8552L172.207 36.4139C173.676 38.282 175.138 40.1703 176.592 42.0782L178.032 40.981ZM22.7492 164.544C21.4365 162.529 20.1444 160.512 18.8726 158.494L18.1072 158.975L17.3415 159.458C18.6183 161.484 19.9163 163.509 21.234 165.532L21.9924 165.039L22.7492 164.544ZM186.595 52.5721C185.189 50.6088 183.774 48.664 182.351 46.7379L181.623 47.2748L180.895 47.8134C182.313 49.7322 183.723 51.67 185.123 53.6259L186.595 52.5721ZM27.2282 174.518C27.909 175.515 28.5922 176.508 29.2777 177.495L30.764 176.463C30.0811 175.479 29.4007 174.49 28.7224 173.497C28.0441 172.504 27.3701 171.51 26.7017 170.516L25.1995 171.525C25.8705 172.523 26.5473 173.521 27.2282 174.518ZM191.291 62.4444C191.969 63.4372 192.643 64.4306 193.311 65.4246L194.812 64.4162C194.141 63.4184 193.466 62.4203 192.785 61.4237C192.104 60.4269 191.42 59.4341 190.734 58.4461L189.249 59.4778C189.932 60.4621 190.613 61.4514 191.291 62.4444ZM38.3895 188.666L39.1163 188.128C37.6991 186.209 36.2898 184.272 34.8896 182.317L34.1541 182.842L33.4182 183.369C34.8239 185.332 36.2382 187.278 37.661 189.204L38.3895 188.666ZM202.67 76.4832C201.394 74.4574 200.097 72.4318 198.779 70.4084L198.02 70.9023L197.263 71.3971C198.575 73.4127 199.867 75.4299 201.139 77.4479L201.906 76.9657L202.67 76.4832ZM47.094 200.086L47.8062 199.527C46.3368 197.659 44.8746 195.771 43.4203 193.863L41.9812 194.96C43.441 196.875 44.9084 198.771 46.3834 200.646L47.094 200.086ZM210.158 88.7688C208.948 86.7128 207.716 84.6566 206.462 82.6003L204.917 83.5419C206.165 85.5904 207.393 87.6392 208.598 89.6874L209.378 89.2279L210.158 88.7688ZM56.1586 211.251L56.853 210.669C55.3261 208.848 53.8051 207.005 52.2915 205.14L51.5892 205.71L50.8865 206.281C52.4061 208.153 53.933 210.004 55.4659 211.832L56.1586 211.251ZM217.276 101.297C216.13 99.2045 214.961 97.1092 213.77 95.0131L212.983 95.4599L212.197 95.907C213.383 97.9949 214.547 100.082 215.688 102.167L216.481 101.732L217.276 101.297ZM66.2454 221.515C64.6572 219.741 63.0746 217.942 61.4975 216.121L60.8138 216.714L60.1293 217.305C61.7128 219.134 63.3019 220.94 64.8967 222.722L66.2454 221.515ZM223.99 114.043C222.91 111.91 221.806 109.772 220.678 107.632L219.878 108.054L219.078 108.476C220.201 110.607 221.3 112.736 222.375 114.861L223.99 114.043ZM75.3201 232.649L75.9735 232.024C74.3351 230.314 72.7006 228.577 71.0709 226.817L69.7434 228.046C71.3799 229.814 73.0211 231.557 74.6665 233.275L75.3201 232.649ZM230.268 126.981C229.266 124.824 228.239 122.661 227.187 120.494L225.559 121.283C226.607 123.442 227.63 125.596 228.627 127.744L229.447 127.362L230.268 126.981ZM86.0924 242.217C84.3897 240.563 82.689 238.881 80.9923 237.172L79.7082 238.446C81.4126 240.163 83.1209 241.853 84.8317 243.515L86.0924 242.217ZM236.11 140.174C235.184 137.976 234.231 135.77 233.251 133.558L231.596 134.292C232.572 136.494 233.521 138.689 234.443 140.877L236.11 140.174ZM95.9486 252.671L96.5534 251.998C94.7923 250.414 93.0318 248.8 91.2736 247.155L90.0373 248.476C91.804 250.129 93.5723 251.752 95.3422 253.343L95.9486 252.671ZM241.442 153.54C240.603 151.312 239.736 149.074 238.839 146.828L237.159 147.499C238.051 149.735 238.915 151.962 239.75 154.178L240.596 153.859L241.442 153.54ZM107.421 261.37C105.596 259.862 103.769 258.321 101.943 256.746L100.761 258.115C102.597 259.699 104.433 261.249 106.268 262.765L107.421 261.37ZM246.247 167.144C245.502 164.883 244.726 162.608 243.918 160.322L242.212 160.926C243.015 163.2 243.787 165.462 244.528 167.71L246.247 167.144ZM118.653 270.223C116.768 268.808 114.879 267.356 112.989 265.865L112.43 266.576L111.869 267.286C113.77 268.785 115.669 270.247 117.565 271.671L118.653 270.223ZM250.434 180.907C249.797 178.622 249.126 176.321 248.421 174.005L247.556 174.269L246.69 174.532C247.391 176.835 248.058 179.122 248.691 181.392L250.434 180.907ZM130.346 278.54C128.386 277.224 126.419 275.864 124.448 274.461L123.399 275.935C125.383 277.347 127.364 278.716 129.338 280.042L130.346 278.54ZM253.952 194.917C253.435 192.595 252.879 190.253 252.286 187.891L251.408 188.112L250.531 188.332C251.121 190.678 251.672 193.005 252.186 195.31L253.952 194.917ZM142.464 286.168C140.435 284.978 138.397 283.738 136.35 282.448L135.867 283.214L135.386 283.979C137.448 285.278 139.503 286.529 141.549 287.729L142.464 286.168ZM256.672 209.087C256.298 206.745 255.88 204.376 255.42 201.982L253.643 202.324C254.1 204.699 254.513 207.049 254.885 209.372L256.672 209.087ZM155.04 292.969C152.938 291.931 150.821 290.835 148.692 289.682L148.262 290.478L147.831 291.273C149.979 292.437 152.116 293.544 154.239 294.592L155.04 292.969ZM258.449 223.404C258.245 221.045 257.991 218.652 257.689 216.228L256.791 216.34L255.893 216.451C256.193 218.854 256.444 221.225 256.646 223.56L258.449 223.404ZM167.781 299.583L168.108 298.739C165.929 297.894 163.729 296.981 161.511 295.999L160.779 297.653C163.022 298.646 165.248 299.57 167.454 300.425L167.781 299.583ZM259.078 237.836C259.084 235.47 259.032 233.06 258.923 230.61L258.019 230.65L257.116 230.69C257.224 233.113 257.275 235.495 257.269 237.832L258.174 237.834L259.078 237.836ZM181.673 303.166C179.422 302.576 177.14 301.901 174.831 301.145L174.267 302.865C176.609 303.633 178.926 304.317 181.214 304.917L181.673 303.166ZM258.258 252.287C258.532 249.937 258.737 247.53 258.873 245.069L257.066 244.969C256.931 247.395 256.73 249.766 256.46 252.078L258.258 252.287ZM195.654 305.779C193.352 305.535 191.007 305.187 188.623 304.736L188.287 306.515C190.717 306.974 193.11 307.329 195.463 307.579L195.654 305.779ZM255.555 266.529C256.179 264.246 256.719 261.887 257.175 259.457L255.396 259.123C254.948 261.508 254.42 263.818 253.81 266.052L255.555 266.529ZM209.893 306.804L209.804 305.903C207.504 306.131 205.143 306.23 202.726 306.202L202.715 307.107L202.705 308.012C205.185 308.04 207.613 307.939 209.983 307.704L209.893 306.804ZM250.393 280.1C251.473 277.977 252.45 275.752 253.326 273.432L252.479 273.113L251.633 272.794C250.78 275.055 249.829 277.218 248.78 279.278L249.586 279.689L250.393 280.1ZM223.522 302.717C221.353 303.554 219.106 304.238 216.785 304.771L217.19 306.534C219.592 305.983 221.922 305.275 224.173 304.407L223.522 302.717ZM242.16 292.119C243.788 290.338 245.295 288.425 246.682 286.388L245.934 285.879L245.186 285.37C243.845 287.338 242.391 289.182 240.824 290.898L242.16 292.119ZM233.885 299.315C234.898 298.623 235.879 297.894 236.83 297.129L236.263 296.425L235.696 295.719C234.783 296.454 233.838 297.155 232.865 297.82C231.891 298.486 230.894 299.11 229.877 299.694L230.778 301.263C231.836 300.656 232.872 300.007 233.885 299.315Z" fill="white"/>
<path d="M-10.765 -65.3224C-11.8229 -64.7151 -12.8595 -64.0657 -13.8725 -63.3738C-14.8854 -62.6818 -15.8672 -61.9523 -16.8178 -61.1877L-15.6836 -59.7781C-14.7697 -60.5132 -13.8257 -61.2142 -12.8517 -61.8795C-11.8778 -62.5448 -10.8815 -63.1693 -9.86435 -63.7533L-10.765 -65.3224ZM-25.174 -49.4285C-23.8333 -51.3968 -22.3788 -53.2413 -20.8111 -54.9571L-22.147 -56.1776C-23.7746 -54.396 -25.2819 -52.4839 -26.6691 -50.4475L-25.174 -49.4285ZM2.82233 -70.5935C0.420897 -70.0419 -1.90844 -69.3331 -4.1599 -68.4648L-3.50884 -66.7765C-1.34042 -67.6129 0.906905 -68.2971 3.22784 -68.8303L2.82233 -70.5935ZM-31.6199 -36.8528C-30.7667 -39.1141 -29.8161 -41.2771 -28.7673 -43.3371L-29.5742 -43.7476L-30.3801 -44.1587C-31.4607 -42.0363 -32.4376 -39.8112 -33.313 -37.4911L-32.4669 -37.1716L-31.6199 -36.8528ZM17.2967 -71.1659L17.3077 -72.0708C14.8281 -72.0991 12.4001 -71.9983 10.0301 -71.7635L10.119 -70.8626L10.2089 -69.9624C12.5092 -70.1903 14.87 -70.2892 17.2866 -70.2616L17.2967 -71.1659ZM-35.3831 -23.182C-34.9353 -25.5668 -34.4068 -27.8776 -33.7971 -30.1108L-35.5436 -30.5871C-36.1667 -28.3045 -36.7059 -25.946 -37.1622 -23.5161L-35.3831 -23.182ZM31.7257 -70.5745C29.296 -71.0331 26.9024 -71.3877 24.5493 -71.6374L24.3588 -69.838C26.6608 -69.5938 29.0056 -69.2458 31.39 -68.7956L31.7257 -70.5745ZM-37.0527 -9.02804C-36.9181 -11.4542 -36.7167 -13.8251 -36.4475 -16.1372L-38.2451 -16.346C-38.5188 -13.9961 -38.724 -11.5892 -38.8606 -9.1285L-37.0527 -9.02804ZM45.7459 -66.9244C43.404 -67.692 41.0872 -68.3761 38.7987 -68.9758L38.3395 -67.2253C40.5912 -66.6353 42.873 -65.9606 45.182 -65.2038L45.7459 -66.9244ZM-37.1031 5.25108C-37.2108 2.82757 -37.2621 0.446075 -37.2563 -1.8907L-38.1612 -1.89322L-39.0654 -1.89475C-39.0712 0.471296 -39.0191 2.88081 -38.9102 5.33133L-37.1031 5.25108ZM58.867 -60.8853L59.2337 -61.7122C56.9906 -62.7049 54.765 -63.6296 52.5588 -64.4846L52.2314 -63.6418L51.9047 -62.7979C54.0836 -61.9535 56.2834 -61.0397 58.5018 -60.058L58.867 -60.8853ZM-35.8802 19.4894C-36.1798 17.0868 -36.4319 14.7166 -36.634 12.3812L-38.4366 12.5368C-38.2326 14.8958 -37.9786 17.2888 -37.6762 19.7132L-36.7785 19.6008L-35.8802 19.4894ZM71.751 -54.5373L72.1822 -55.3326C70.0337 -56.496 67.8969 -57.6028 65.7737 -58.6508L64.9721 -57.0275C67.0743 -55.9899 69.1914 -54.8939 71.3205 -53.741L71.751 -54.5373ZM-33.6302 33.6167C-34.087 31.2416 -34.5006 28.8918 -34.8718 26.5692L-36.659 26.8541C-36.2847 29.1961 -35.8672 31.5653 -35.4069 33.9586L-34.5187 33.7885L-33.6302 33.6167ZM84.627 -48.0383C82.5649 -49.3374 80.5098 -50.5879 78.4642 -51.7883L77.5489 -50.2271C79.5776 -49.0367 81.616 -47.7968 83.6624 -46.5076L84.627 -48.0383ZM-30.518 47.6088C-31.1079 45.2625 -31.6595 42.9359 -32.1729 40.631L-33.9389 41.0241C-33.4218 43.3454 -32.8665 45.6879 -32.2727 48.0498L-30.518 47.6088ZM96.0884 -39.2574L96.6137 -39.9944C94.6295 -41.4064 92.6492 -42.7756 90.6749 -44.1014L89.6665 -42.5993C91.6269 -41.2829 93.5936 -39.923 95.5647 -38.5202L96.0884 -39.2574ZM-26.6781 61.409C-27.3791 59.1064 -28.0454 56.8188 -28.678 54.5485L-30.4217 55.0348C-29.7852 57.3192 -29.1134 59.62 -28.4082 61.936L-27.543 61.6717L-26.6781 61.409ZM107.583 -30.6348L108.144 -31.3447C106.243 -32.8438 104.343 -34.3056 102.446 -35.7293L101.36 -34.2825C103.245 -32.8677 105.133 -31.4143 107.023 -29.9239L107.583 -30.6348ZM-22.1998 75.0158C-23.0032 72.7418 -23.7744 70.4793 -24.5149 68.2307L-26.2338 68.7972C-25.4892 71.0583 -24.7129 73.3325 -23.9053 75.6186L-22.1998 75.0158ZM119.252 -22.1743C117.416 -23.758 115.58 -25.3081 113.744 -26.824L112.592 -25.4288C114.417 -23.9214 116.243 -22.3794 118.069 -20.8041L119.252 -22.1743ZM-17.1459 88.4418C-18.0383 86.206 -18.9022 83.9789 -19.7368 81.7625L-21.4305 82.4015C-20.5916 84.6291 -19.7228 86.8664 -18.8261 89.1131L-17.1459 88.4418ZM129.975 -12.5355C128.209 -14.1879 126.44 -15.8101 124.67 -17.4016L124.065 -16.7288L123.459 -16.057C125.221 -14.4735 126.981 -12.8589 128.739 -11.2144L129.975 -12.5355ZM-11.5846 101.65C-12.56 99.4476 -13.5083 97.2517 -14.4297 95.0642L-16.0972 95.7666C-15.1713 97.9646 -14.2181 100.171 -13.2383 102.383L-11.5846 101.65ZM140.305 -2.50468C138.6 -4.22193 136.892 -5.91207 135.181 -7.57381L133.92 -6.27601C135.623 -4.62215 137.323 -2.93949 139.02 -1.23013L140.305 -2.50468ZM-5.54662 114.658C-6.59409 112.499 -7.6171 110.345 -8.61447 108.197L-9.43396 108.578L-10.2551 108.96C-9.25341 111.117 -8.22633 113.28 -7.17448 115.447L-5.54662 114.658ZM150.269 7.89492C148.633 6.12688 146.992 4.38363 145.346 2.66601L144.693 3.2923L144.039 3.91696C145.678 5.62722 147.312 7.3635 148.942 9.12418L150.269 7.89492ZM0.935183 127.465C-0.187846 125.334 -1.28776 123.205 -2.36317 121.081L-3.97766 121.898C-2.89774 124.032 -1.79322 126.169 -0.665608 128.309L0.13446 127.886L0.935183 127.465ZM159.199 19.227L159.883 18.6354C158.3 16.8067 156.71 15.0013 155.115 13.2194L153.766 14.4261C155.355 16.2005 156.938 17.9985 158.515 19.8197L159.199 19.227ZM7.81621 140.034C6.63002 137.946 5.46622 135.859 4.32483 133.774L3.5308 134.21L2.73708 134.643C3.88299 136.736 5.05165 138.832 6.24247 140.928L7.03015 140.481L7.81621 140.034ZM168.424 30.2307L169.126 29.6594C167.607 27.7878 166.08 25.9372 164.547 24.1087L163.853 24.691L163.16 25.2716C164.687 27.093 166.208 28.9361 167.721 30.8003L168.424 30.2307ZM15.0959 152.399C13.8474 150.35 12.6202 148.302 11.4143 146.253L10.6343 146.714L9.85457 147.172C11.0651 149.228 12.2973 151.284 13.5505 153.341L15.0959 152.399ZM178.032 40.981C176.572 39.0659 175.104 37.1703 173.629 35.295L172.918 35.8552L172.207 36.4139C173.676 38.282 175.138 40.1703 176.592 42.0782L178.032 40.981ZM22.7492 164.544C21.4365 162.529 20.1444 160.512 18.8726 158.494L18.1072 158.975L17.3415 159.458C18.6183 161.484 19.9163 163.509 21.234 165.532L21.9924 165.039L22.7492 164.544ZM186.595 52.5721C185.189 50.6088 183.774 48.664 182.351 46.7379L181.623 47.2748L180.895 47.8134C182.313 49.7322 183.723 51.67 185.123 53.6259L186.595 52.5721ZM27.2282 174.518C27.909 175.515 28.5922 176.508 29.2777 177.495L30.764 176.463C30.0811 175.479 29.4007 174.49 28.7224 173.497C28.0441 172.504 27.3701 171.51 26.7017 170.516L25.1995 171.525C25.8705 172.523 26.5473 173.521 27.2282 174.518ZM191.291 62.4444C191.969 63.4372 192.643 64.4306 193.311 65.4246L194.812 64.4162C194.141 63.4184 193.466 62.4203 192.785 61.4237C192.104 60.4269 191.42 59.4341 190.734 58.4461L189.249 59.4778C189.932 60.4621 190.613 61.4514 191.291 62.4444ZM38.3895 188.666L39.1163 188.128C37.6991 186.209 36.2898 184.272 34.8896 182.317L34.1541 182.842L33.4182 183.369C34.8239 185.332 36.2382 187.278 37.661 189.204L38.3895 188.666ZM202.67 76.4832C201.394 74.4574 200.097 72.4318 198.779 70.4084L198.02 70.9023L197.263 71.3971C198.575 73.4127 199.867 75.4299 201.139 77.4479L201.906 76.9657L202.67 76.4832ZM47.094 200.086L47.8062 199.527C46.3368 197.659 44.8746 195.771 43.4203 193.863L41.9812 194.96C43.441 196.875 44.9084 198.771 46.3834 200.646L47.094 200.086ZM210.158 88.7688C208.948 86.7128 207.716 84.6566 206.462 82.6003L204.917 83.5419C206.165 85.5904 207.393 87.6392 208.598 89.6874L209.378 89.2279L210.158 88.7688ZM56.1586 211.251L56.853 210.669C55.3261 208.848 53.8051 207.005 52.2915 205.14L51.5892 205.71L50.8865 206.281C52.4061 208.153 53.933 210.004 55.4659 211.832L56.1586 211.251ZM217.276 101.297C216.13 99.2045 214.961 97.1092 213.77 95.0131L212.983 95.4599L212.197 95.907C213.383 97.9949 214.547 100.082 215.688 102.167L216.481 101.732L217.276 101.297ZM66.2454 221.515C64.6572 219.741 63.0746 217.942 61.4975 216.121L60.8138 216.714L60.1293 217.305C61.7128 219.134 63.3019 220.94 64.8967 222.722L66.2454 221.515ZM223.99 114.043C222.91 111.91 221.806 109.772 220.678 107.632L219.878 108.054L219.078 108.476C220.201 110.607 221.3 112.736 222.375 114.861L223.99 114.043ZM75.3201 232.649L75.9735 232.024C74.3351 230.314 72.7006 228.577 71.0709 226.817L69.7434 228.046C71.3799 229.814 73.0211 231.557 74.6665 233.275L75.3201 232.649ZM230.268 126.981C229.266 124.824 228.239 122.661 227.187 120.494L225.559 121.283C226.607 123.442 227.63 125.596 228.627 127.744L229.447 127.362L230.268 126.981ZM86.0924 242.217C84.3897 240.563 82.689 238.881 80.9923 237.172L79.7082 238.446C81.4126 240.163 83.1209 241.853 84.8317 243.515L86.0924 242.217ZM236.11 140.174C235.184 137.976 234.231 135.77 233.251 133.558L231.596 134.292C232.572 136.494 233.521 138.689 234.443 140.877L236.11 140.174ZM95.9486 252.671L96.5534 251.998C94.7923 250.414 93.0318 248.8 91.2736 247.155L90.0373 248.476C91.804 250.129 93.5723 251.752 95.3422 253.343L95.9486 252.671ZM241.442 153.54C240.603 151.312 239.736 149.074 238.839 146.828L237.159 147.499C238.051 149.735 238.915 151.962 239.75 154.178L240.596 153.859L241.442 153.54ZM107.421 261.37C105.596 259.862 103.769 258.321 101.943 256.746L100.761 258.115C102.597 259.699 104.433 261.249 106.268 262.765L107.421 261.37ZM246.247 167.144C245.502 164.883 244.726 162.608 243.918 160.322L242.212 160.926C243.015 163.2 243.787 165.462 244.528 167.71L246.247 167.144ZM118.653 270.223C116.768 268.808 114.879 267.356 112.989 265.865L112.43 266.576L111.869 267.286C113.77 268.785 115.669 270.247 117.565 271.671L118.653 270.223ZM250.434 180.907C249.797 178.622 249.126 176.321 248.421 174.005L247.556 174.269L246.69 174.532C247.391 176.835 248.058 179.122 248.691 181.392L250.434 180.907ZM130.346 278.54C128.386 277.224 126.419 275.864 124.448 274.461L123.399 275.935C125.383 277.347 127.364 278.716 129.338 280.042L130.346 278.54ZM253.952 194.917C253.435 192.595 252.879 190.253 252.286 187.891L251.408 188.112L250.531 188.332C251.121 190.678 251.672 193.005 252.186 195.31L253.952 194.917ZM142.464 286.168C140.435 284.978 138.397 283.738 136.35 282.448L135.867 283.214L135.386 283.979C137.448 285.278 139.503 286.529 141.549 287.729L142.464 286.168ZM256.672 209.087C256.298 206.745 255.88 204.376 255.42 201.982L253.643 202.324C254.1 204.699 254.513 207.049 254.885 209.372L256.672 209.087ZM155.04 292.969C152.938 291.931 150.821 290.835 148.692 289.682L148.262 290.478L147.831 291.273C149.979 292.437 152.116 293.544 154.239 294.592L155.04 292.969ZM258.449 223.404C258.245 221.045 257.991 218.652 257.689 216.228L256.791 216.34L255.893 216.451C256.193 218.854 256.444 221.225 256.646 223.56L258.449 223.404ZM167.781 299.583L168.108 298.739C165.929 297.894 163.729 296.981 161.511 295.999L160.779 297.653C163.022 298.646 165.248 299.57 167.454 300.425L167.781 299.583ZM259.078 237.836C259.084 235.47 259.032 233.06 258.923 230.61L258.019 230.65L257.116 230.69C257.224 233.113 257.275 235.495 257.269 237.832L258.174 237.834L259.078 237.836ZM181.673 303.166C179.422 302.576 177.14 301.901 174.831 301.145L174.267 302.865C176.609 303.633 178.926 304.317 181.214 304.917L181.673 303.166ZM258.258 252.287C258.532 249.937 258.737 247.53 258.873 245.069L257.066 244.969C256.931 247.395 256.73 249.766 256.46 252.078L258.258 252.287ZM195.654 305.779C193.352 305.535 191.007 305.187 188.623 304.736L188.287 306.515C190.717 306.974 193.11 307.329 195.463 307.579L195.654 305.779ZM255.555 266.529C256.179 264.246 256.719 261.887 257.175 259.457L255.396 259.123C254.948 261.508 254.42 263.818 253.81 266.052L255.555 266.529ZM209.893 306.804L209.804 305.903C207.504 306.131 205.143 306.23 202.726 306.202L202.715 307.107L202.705 308.012C205.185 308.04 207.613 307.939 209.983 307.704L209.893 306.804ZM250.393 280.1C251.473 277.977 252.45 275.752 253.326 273.432L252.479 273.113L251.633 272.794C250.78 275.055 249.829 277.218 248.78 279.278L249.586 279.689L250.393 280.1ZM223.522 302.717C221.353 303.554 219.106 304.238 216.785 304.771L217.19 306.534C219.592 305.983 221.922 305.275 224.173 304.407L223.522 302.717ZM242.16 292.119C243.788 290.338 245.295 288.425 246.682 286.388L245.934 285.879L245.186 285.37C243.845 287.338 242.391 289.182 240.824 290.898L242.16 292.119ZM233.885 299.315C234.898 298.623 235.879 297.894 236.83 297.129L236.263 296.425L235.696 295.719C234.783 296.454 233.838 297.155 232.865 297.82C231.891 298.486 230.894 299.11 229.877 299.694L230.778 301.263C231.836 300.656 232.872 300.007 233.885 299.315Z" fill="url(#paint2_linear_1_267)"/>
</g>
<defs>
<linearGradient id="paint0_linear_1_267" x1="166.198" y1="184.137" x2="369.594" y2="266.54" gradientUnits="userSpaceOnUse">
<stop stop-color="#19ABFF"/>
<stop offset="1" stop-color="#2B95FF"/>
</linearGradient>
<linearGradient id="paint1_linear_1_267" x1="205.332" y1="221.324" x2="1.9357" y2="303.726" gradientUnits="userSpaceOnUse">
<stop stop-color="#19ABFF"/>
<stop offset="1" stop-color="#2B95FF"/>
</linearGradient>
<linearGradient id="paint2_linear_1_267" x1="233.014" y1="215.736" x2="17.8833" y2="259.083" gradientUnits="userSpaceOnUse">
<stop stop-color="#19ABFF"/>
<stop offset="1" stop-color="#2B95FF"/>
</linearGradient>
<clipPath id="clip0_1_267">
<rect width="388" height="334" fill="white"/>
</clipPath>
</defs>
</svg>
