<svg width="112" height="29" viewBox="0 0 112 29" fill="none" xmlns="http://www.w3.org/2000/svg">
<path d="M16.2522 14.2201C16.2522 13.0981 17.1617 12.1886 18.2836 12.1886C19.4056 12.1886 20.3151 13.0981 20.3151 14.2201C20.3151 15.342 19.4056 16.2515 18.2836 16.2515C17.1617 16.2515 16.2522 15.342 16.2522 14.2201Z" fill="#F0F2F7"/>
<path d="M16.2522 10.1569C16.2522 9.03496 17.1617 8.12544 18.2836 8.12544C19.4056 8.12544 20.3151 9.03496 20.3151 10.1569C20.3151 11.2789 19.4056 12.1886 18.2836 12.1886C17.1617 12.1886 16.2522 11.2789 16.2522 10.1569Z" fill="#F0F2F7"/>
<path d="M16.2522 18.2832C16.2522 17.1613 17.1617 16.2515 18.2836 16.2515C19.4056 16.2515 20.3151 17.1613 20.3151 18.2832C20.3151 19.4052 19.4056 20.3147 18.2836 20.3147C17.1617 20.3147 16.2522 19.4052 16.2522 18.2832Z" fill="#F0F2F7"/>
<path d="M8.12587 18.2832C8.12587 17.1613 9.03539 16.2517 10.1573 16.2517C11.2793 16.2517 12.1888 17.1613 12.1888 18.2832C12.1888 19.4052 11.2793 20.3147 10.1573 20.3147C9.03539 20.3147 8.12587 19.4052 8.12587 18.2832Z" fill="#F0F2F7"/>
<path d="M8.12587 10.1569C8.12587 9.03496 9.03539 8.12544 10.1573 8.12544C11.2793 8.12544 12.1888 9.03496 12.1888 10.1569C12.1888 11.2789 11.2793 12.1884 10.1573 12.1884C9.03539 12.1884 8.12587 11.2789 8.12587 10.1569Z" fill="#F0F2F7"/>
<path d="M8.12587 14.2201C8.12587 13.0981 9.03539 12.1884 10.1573 12.1884C11.2793 12.1884 12.1888 13.0981 12.1888 14.2201C12.1888 15.342 11.2793 16.2517 10.1573 16.2517C9.03539 16.2517 8.12587 15.342 8.12587 14.2201Z" fill="#F0F2F7"/>
<path d="M12.1888 10.1569C12.1888 9.03496 13.0985 8.12544 14.2205 8.12544C15.3424 8.12544 16.2522 9.03496 16.2522 10.1569C16.2522 11.2789 15.3424 12.1884 14.2205 12.1884C13.0985 12.1884 12.1888 11.2789 12.1888 10.1569Z" fill="#F0F2F7"/>
<path d="M12.189 6.09462C12.189 4.97267 13.0985 4.06315 14.2205 4.06315C15.3424 4.06315 16.252 4.97267 16.252 6.09462C16.252 7.21657 15.3424 8.12609 14.2205 8.12609C13.0985 8.12609 12.189 7.21657 12.189 6.09462Z" fill="#F0F2F7"/>
<path d="M12.189 2.03147C12.189 0.909521 13.0985 0 14.2205 0C15.3424 0 16.252 0.909521 16.252 2.03147C16.252 3.15342 15.3424 4.06315 14.2205 4.06315C13.0985 4.06315 12.189 3.15342 12.189 2.03147Z" fill="#F0F2F7"/>
<path d="M12.189 26.4087C12.189 25.2867 13.0985 24.3772 14.2205 24.3772C15.3424 24.3772 16.252 25.2867 16.252 26.4087C16.252 27.5306 15.3424 28.4401 14.2205 28.4401C13.0985 28.4401 12.189 27.5306 12.189 26.4087Z" fill="#F0F2F7"/>
<path d="M12.189 22.3459C12.189 21.224 13.0985 20.3145 14.2205 20.3145C15.3424 20.3145 16.252 21.224 16.252 22.3459C16.252 23.4679 15.3424 24.3772 14.2205 24.3772C13.0985 24.3772 12.189 23.4679 12.189 22.3459Z" fill="#F0F2F7"/>
<path d="M20.3151 14.2201C20.3151 13.0981 21.2244 12.1886 22.3464 12.1886C23.4683 12.1886 24.3778 13.0981 24.3778 14.2201C24.3778 15.342 23.4683 16.2515 22.3464 16.2515C21.2244 16.2515 20.3151 15.342 20.3151 14.2201Z" fill="#F0F2F7"/>
<path d="M24.3778 14.2201C24.3778 13.0981 25.2875 12.1886 26.4095 12.1886C27.5315 12.1886 28.441 13.0981 28.441 14.2201C28.441 15.342 27.5315 16.2515 26.4095 16.2515C25.2875 16.2515 24.3778 15.342 24.3778 14.2201Z" fill="#F0F2F7"/>
<path d="M0 14.2201C0 13.0981 0.909521 12.1886 2.03147 12.1886C3.15342 12.1886 4.06294 13.0981 4.06294 14.2201C4.06294 15.342 3.15342 16.2515 2.03147 16.2515C0.909521 16.2515 0 15.342 0 14.2201Z" fill="#F0F2F7"/>
<path d="M21.4028 7.03805C20.6094 6.24471 20.6094 4.95846 21.4028 4.16512C22.1961 3.37178 23.4824 3.37178 24.2757 4.16512C25.069 4.95846 25.069 6.24471 24.2757 7.03805C23.4824 7.83139 22.1961 7.83139 21.4028 7.03805Z" fill="#F0F2F7"/>
<path d="M4.16519 24.2756C3.37185 23.4823 3.37185 22.196 4.16519 21.4027C4.95853 20.6094 6.24479 20.6094 7.03813 21.4027C7.83147 22.196 7.83147 23.4823 7.03813 24.2756C6.24479 25.069 4.95853 25.069 4.16519 24.2756Z" fill="#F0F2F7"/>
<path d="M21.4031 21.4024C22.1965 20.609 23.4827 20.609 24.2761 21.4024C25.0694 22.1957 25.0694 23.482 24.2761 24.2753C23.4827 25.0686 22.1965 25.0686 21.4031 24.2753C20.6098 23.482 20.6098 22.1957 21.4031 21.4024Z" fill="#F0F2F7"/>
<path d="M4.16511 4.16519C4.95845 3.37185 6.24471 3.37185 7.03805 4.16519C7.83139 4.95853 7.83139 6.24479 7.03805 7.03813C6.24471 7.83147 4.95845 7.83147 4.16511 7.03813C3.37178 6.24479 3.37178 4.95853 4.16511 4.16519Z" fill="#F0F2F7"/>
<path d="M4.06294 14.2201C4.06294 13.0981 4.97267 12.1886 6.09462 12.1886C7.21657 12.1886 8.12587 13.0981 8.12587 14.2201C8.12587 15.342 7.21657 16.2515 6.09462 16.2515C4.97267 16.2515 4.06294 15.342 4.06294 14.2201Z" fill="#F0F2F7"/>
<path d="M12.1888 18.2832C12.1888 17.1613 13.0985 16.2517 14.2205 16.2517C15.3424 16.2517 16.2522 17.1613 16.2522 18.2832C16.2522 19.4052 15.3424 20.3145 14.2205 20.3145C13.0985 20.3145 12.1888 19.4052 12.1888 18.2832Z" fill="#F0F2F7"/>
<path d="M105.994 23.8913C104.534 23.8913 103.272 23.668 102.207 23.2213C101.141 22.7575 100.308 22.1391 99.707 21.366L101.64 19.6138C102.189 20.2151 102.816 20.6789 103.521 21.0053C104.242 21.3317 105.075 21.4949 106.02 21.4949C106.845 21.4949 107.506 21.3574 108.004 21.0826C108.503 20.8077 108.752 20.3868 108.752 19.8199C108.752 19.3389 108.58 19.0125 108.236 18.8408C107.91 18.669 107.472 18.5401 106.922 18.4542L104.783 18.1193C104.234 18.0334 103.692 17.9131 103.16 17.7585C102.645 17.5867 102.181 17.3548 101.768 17.0628C101.373 16.7707 101.056 16.4014 100.815 15.9547C100.575 15.4909 100.454 14.9326 100.454 14.2798C100.454 12.8883 100.97 11.8233 102 11.0846C103.048 10.3459 104.483 9.97656 106.304 9.97656C107.592 9.97656 108.683 10.1569 109.576 10.5177C110.487 10.8784 111.234 11.3852 111.818 12.038L110.092 13.9448C109.714 13.5325 109.207 13.1718 108.571 12.8626C107.953 12.5362 107.163 12.373 106.201 12.373C104.517 12.373 103.675 12.8969 103.675 13.9448C103.675 14.4258 103.847 14.7608 104.191 14.9498C104.534 15.1216 104.981 15.2504 105.531 15.3363L107.644 15.6713C108.21 15.7572 108.752 15.886 109.267 16.0578C109.799 16.2124 110.263 16.4357 110.658 16.7278C111.071 17.0198 111.397 17.3892 111.638 17.8358C111.878 18.2825 111.998 18.8322 111.998 19.485C111.998 20.8593 111.466 21.9415 110.401 22.7317C109.353 23.5048 107.884 23.8913 105.994 23.8913Z" fill="#F0F2F7"/>
<path d="M93.7465 21.2366H93.6176C93.3256 21.9581 92.8703 22.5851 92.2519 23.1176C91.6506 23.633 90.8089 23.8907 89.7266 23.8907C88.4211 23.8907 87.356 23.4612 86.5314 22.6023C85.724 21.7262 85.3203 20.4807 85.3203 18.8659V10.2852H88.6186V18.4021C88.6186 20.3261 89.4518 21.2881 91.1181 21.2881C91.4445 21.2881 91.7623 21.2452 92.0715 21.1593C92.3979 21.0734 92.6814 20.9445 92.9219 20.7727C93.1796 20.5838 93.3771 20.3604 93.5145 20.1028C93.6691 19.8451 93.7465 19.5359 93.7465 19.1751V10.2852H97.0448V23.5815H93.7465V21.2366Z" fill="#F0F2F7"/>
<path d="M62.4414 20.9789L62.4414 12.8877L62.4414 10.2852H65.7397V13.9184H65.9459C66.0661 13.4546 66.2293 13.008 66.4354 12.5785C66.6588 12.1319 66.9336 11.7453 67.26 11.4189C67.6036 11.0754 68.0159 10.8005 68.4969 10.5944C68.9779 10.3882 69.5534 10.2852 70.2233 10.2852H71.6664V13.3773H68.9349C67.9386 13.3773 67.157 13.6694 66.5901 14.2534C66.0232 14.8375 65.7397 15.5848 65.7397 16.4952V23.5815L62.4414 23.5815V20.9789Z" fill="#F0F2F7"/>
<path d="M42.0892 23.8897C40.5431 23.8897 39.2203 23.6234 38.1209 23.0909C37.0386 22.5583 36.1539 21.854 35.4668 20.9779L37.5025 18.8649C38.1724 19.6379 38.8939 20.2134 39.667 20.5914C40.4572 20.9521 41.299 21.1325 42.1922 21.1325C43.223 21.1325 44.0132 20.9006 44.5629 20.4367C45.1126 19.9729 45.3875 19.303 45.3875 18.4268C45.3875 17.7053 45.1813 17.1642 44.769 16.8035C44.3568 16.4255 43.661 16.1593 42.6818 16.0047L40.775 15.6954C39.1087 15.4034 37.9233 14.8021 37.219 13.8917C36.5147 12.964 36.1625 11.8732 36.1625 10.6191C36.1625 8.90127 36.7208 7.5871 37.8375 6.67663C38.9541 5.74898 40.5001 5.28516 42.4757 5.28516C43.8843 5.28516 45.0954 5.50848 46.109 5.95512C47.1397 6.40177 47.9643 7.01161 48.5827 7.78465L46.5986 9.89763C46.1176 9.33073 45.5421 8.88409 44.8721 8.55769C44.2022 8.21412 43.4119 8.04233 42.5015 8.04233C40.5431 8.04233 39.5639 8.84973 39.5639 10.4645C39.5639 11.1517 39.7701 11.6756 40.1823 12.0364C40.5946 12.3971 41.299 12.6634 42.2953 12.8352L44.1764 13.1702C45.7396 13.4622 46.8992 14.0377 47.6551 14.8966C48.4109 15.7556 48.7889 16.855 48.7889 18.1949C48.7889 19.0367 48.6428 19.8097 48.3508 20.5141C48.0588 21.2012 47.6293 21.8025 47.0624 22.3178C46.4955 22.816 45.7912 23.2025 44.9494 23.4774C44.1248 23.7522 43.1714 23.8897 42.0892 23.8897Z" fill="#F0F2F7"/>
<path d="M51.4512 20.9789H54.121V12.8877H51.4512V10.2852H57.4193V20.9789H59.7799V23.5815H51.4512V20.9789Z" fill="#F0F2F7"/>
<ellipse cx="55.6163" cy="6.28627" rx="2.03041" ry="2.03041" fill="#F0F2F7"/>
<path d="M74.3301 20.9789H76.9999V12.8877H74.3301V10.2852H80.2982V20.9789H82.6588V23.5815H74.3301V20.9789Z" fill="#F0F2F7"/>
<ellipse cx="78.4935" cy="6.28627" rx="2.03041" ry="2.03041" fill="#F0F2F7"/>
</svg>
