<svg width="36" height="36" viewBox="0 0 36 36" fill="none" xmlns="http://www.w3.org/2000/svg">
<path d="M20.2183 17.6903C20.2183 16.2946 21.3498 15.1631 22.7456 15.1631C24.1413 15.1631 25.2728 16.2946 25.2728 17.6903C25.2728 19.0861 24.1413 20.2175 22.7456 20.2175C21.3498 20.2175 20.2183 19.0861 20.2183 17.6903Z" fill="#F0F2F7"/>
<path d="M20.2183 17.6903C20.2183 16.2946 21.3498 15.1631 22.7456 15.1631C24.1413 15.1631 25.2728 16.2946 25.2728 17.6903C25.2728 19.0861 24.1413 20.2175 22.7456 20.2175C21.3498 20.2175 20.2183 19.0861 20.2183 17.6903Z" fill="url(#paint0_linear_5_48)"/>
<path d="M20.2183 12.6356C20.2183 11.2398 21.3498 10.1084 22.7456 10.1084C24.1413 10.1084 25.2728 11.2398 25.2728 12.6356C25.2728 14.0313 24.1413 15.1631 22.7456 15.1631C21.3498 15.1631 20.2183 14.0313 20.2183 12.6356Z" fill="#F0F2F7"/>
<path d="M20.2183 12.6356C20.2183 11.2398 21.3498 10.1084 22.7456 10.1084C24.1413 10.1084 25.2728 11.2398 25.2728 12.6356C25.2728 14.0313 24.1413 15.1631 22.7456 15.1631C21.3498 15.1631 20.2183 14.0313 20.2183 12.6356Z" fill="url(#paint1_linear_5_48)"/>
<path d="M20.2183 22.745C20.2183 21.3493 21.3498 20.2175 22.7456 20.2175C24.1413 20.2175 25.2728 21.3493 25.2728 22.745C25.2728 24.1408 24.1413 25.2723 22.7456 25.2723C21.3498 25.2723 20.2183 24.1408 20.2183 22.745Z" fill="#F0F2F7"/>
<path d="M20.2183 22.745C20.2183 21.3493 21.3498 20.2175 22.7456 20.2175C24.1413 20.2175 25.2728 21.3493 25.2728 22.745C25.2728 24.1408 24.1413 25.2723 22.7456 25.2723C21.3498 25.2723 20.2183 24.1408 20.2183 22.745Z" fill="url(#paint2_linear_5_48)"/>
<path d="M10.1089 22.745C10.1089 21.3493 11.2404 20.2178 12.6361 20.2178C14.0319 20.2178 15.1634 21.3493 15.1634 22.745C15.1634 24.1408 14.0319 25.2723 12.6361 25.2723C11.2404 25.2723 10.1089 24.1408 10.1089 22.745Z" fill="#F0F2F7"/>
<path d="M10.1089 22.745C10.1089 21.3493 11.2404 20.2178 12.6361 20.2178C14.0319 20.2178 15.1634 21.3493 15.1634 22.745C15.1634 24.1408 14.0319 25.2723 12.6361 25.2723C11.2404 25.2723 10.1089 24.1408 10.1089 22.745Z" fill="url(#paint3_linear_5_48)"/>
<path d="M10.1089 12.6356C10.1089 11.2398 11.2404 10.1084 12.6361 10.1084C14.0319 10.1084 15.1634 11.2398 15.1634 12.6356C15.1634 14.0313 14.0319 15.1628 12.6361 15.1628C11.2404 15.1628 10.1089 14.0313 10.1089 12.6356Z" fill="#F0F2F7"/>
<path d="M10.1089 12.6356C10.1089 11.2398 11.2404 10.1084 12.6361 10.1084C14.0319 10.1084 15.1634 11.2398 15.1634 12.6356C15.1634 14.0313 14.0319 15.1628 12.6361 15.1628C11.2404 15.1628 10.1089 14.0313 10.1089 12.6356Z" fill="url(#paint4_linear_5_48)"/>
<path d="M10.1089 17.6903C10.1089 16.2946 11.2404 15.1628 12.6361 15.1628C14.0319 15.1628 15.1634 16.2946 15.1634 17.6903C15.1634 19.0861 14.0319 20.2178 12.6361 20.2178C11.2404 20.2178 10.1089 19.0861 10.1089 17.6903Z" fill="#F0F2F7"/>
<path d="M10.1089 17.6903C10.1089 16.2946 11.2404 15.1628 12.6361 15.1628C14.0319 15.1628 15.1634 16.2946 15.1634 17.6903C15.1634 19.0861 14.0319 20.2178 12.6361 20.2178C11.2404 20.2178 10.1089 19.0861 10.1089 17.6903Z" fill="url(#paint5_linear_5_48)"/>
<path d="M15.1634 12.6356C15.1634 11.2398 16.2951 10.1084 17.6908 10.1084C19.0866 10.1084 20.2183 11.2398 20.2183 12.6356C20.2183 14.0313 19.0866 15.1628 17.6908 15.1628C16.2951 15.1628 15.1634 14.0313 15.1634 12.6356Z" fill="#F0F2F7"/>
<path d="M15.1634 12.6356C15.1634 11.2398 16.2951 10.1084 17.6908 10.1084C19.0866 10.1084 20.2183 11.2398 20.2183 12.6356C20.2183 14.0313 19.0866 15.1628 17.6908 15.1628C16.2951 15.1628 15.1634 14.0313 15.1634 12.6356Z" fill="url(#paint6_linear_5_48)"/>
<path d="M15.1636 7.58195C15.1636 6.1862 16.2951 5.05472 17.6908 5.05472C19.0866 5.05472 20.2181 6.1862 20.2181 7.58195C20.2181 8.9777 19.0866 10.1092 17.6908 10.1092C16.2951 10.1092 15.1636 8.9777 15.1636 7.58195Z" fill="#F0F2F7"/>
<path d="M15.1636 7.58195C15.1636 6.1862 16.2951 5.05472 17.6908 5.05472C19.0866 5.05472 20.2181 6.1862 20.2181 7.58195C20.2181 8.9777 19.0866 10.1092 17.6908 10.1092C16.2951 10.1092 15.1636 8.9777 15.1636 7.58195Z" fill="url(#paint7_linear_5_48)"/>
<path d="M15.1636 2.52723C15.1636 1.13148 16.2951 0 17.6908 0C19.0866 0 20.2181 1.13148 20.2181 2.52723C20.2181 3.92298 19.0866 5.05472 17.6908 5.05472C16.2951 5.05472 15.1636 3.92298 15.1636 2.52723Z" fill="#F0F2F7"/>
<path d="M15.1636 2.52723C15.1636 1.13148 16.2951 0 17.6908 0C19.0866 0 20.2181 1.13148 20.2181 2.52723C20.2181 3.92298 19.0866 5.05472 17.6908 5.05472C16.2951 5.05472 15.1636 3.92298 15.1636 2.52723Z" fill="url(#paint8_linear_5_48)"/>
<path d="M15.1636 32.8534C15.1636 31.4576 16.2951 30.3262 17.6908 30.3262C19.0866 30.3262 20.2181 31.4576 20.2181 32.8534C20.2181 34.2491 19.0866 35.3806 17.6908 35.3806C16.2951 35.3806 15.1636 34.2491 15.1636 32.8534Z" fill="#F0F2F7"/>
<path d="M15.1636 32.8534C15.1636 31.4576 16.2951 30.3262 17.6908 30.3262C19.0866 30.3262 20.2181 31.4576 20.2181 32.8534C20.2181 34.2491 19.0866 35.3806 17.6908 35.3806C16.2951 35.3806 15.1636 34.2491 15.1636 32.8534Z" fill="url(#paint9_linear_5_48)"/>
<path d="M15.1636 27.7992C15.1636 26.4035 16.2951 25.272 17.6908 25.272C19.0866 25.272 20.2181 26.4035 20.2181 27.7992C20.2181 29.195 19.0866 30.3262 17.6908 30.3262C16.2951 30.3262 15.1636 29.195 15.1636 27.7992Z" fill="#F0F2F7"/>
<path d="M15.1636 27.7992C15.1636 26.4035 16.2951 25.272 17.6908 25.272C19.0866 25.272 20.2181 26.4035 20.2181 27.7992C20.2181 29.195 19.0866 30.3262 17.6908 30.3262C16.2951 30.3262 15.1636 29.195 15.1636 27.7992Z" fill="url(#paint10_linear_5_48)"/>
<path d="M25.2728 17.6903C25.2728 16.2946 26.404 15.1631 27.7997 15.1631C29.1955 15.1631 30.327 16.2946 30.327 17.6903C30.327 19.0861 29.1955 20.2175 27.7997 20.2175C26.404 20.2175 25.2728 19.0861 25.2728 17.6903Z" fill="#F0F2F7"/>
<path d="M25.2728 17.6903C25.2728 16.2946 26.404 15.1631 27.7997 15.1631C29.1955 15.1631 30.327 16.2946 30.327 17.6903C30.327 19.0861 29.1955 20.2175 27.7997 20.2175C26.404 20.2175 25.2728 19.0861 25.2728 17.6903Z" fill="url(#paint11_linear_5_48)"/>
<path d="M30.327 17.6903C30.327 16.2946 31.4587 15.1631 32.8545 15.1631C34.2502 15.1631 35.3817 16.2946 35.3817 17.6903C35.3817 19.0861 34.2502 20.2175 32.8545 20.2175C31.4587 20.2175 30.327 19.0861 30.327 17.6903Z" fill="#F0F2F7"/>
<path d="M30.327 17.6903C30.327 16.2946 31.4587 15.1631 32.8545 15.1631C34.2502 15.1631 35.3817 16.2946 35.3817 17.6903C35.3817 19.0861 34.2502 20.2175 32.8545 20.2175C31.4587 20.2175 30.327 19.0861 30.327 17.6903Z" fill="url(#paint12_linear_5_48)"/>
<path d="M0 17.6903C0 16.2946 1.13148 15.1631 2.52723 15.1631C3.92298 15.1631 5.05446 16.2946 5.05446 17.6903C5.05446 19.0861 3.92298 20.2175 2.52723 20.2175C1.13148 20.2175 0 19.0861 0 17.6903Z" fill="#F0F2F7"/>
<path d="M0 17.6903C0 16.2946 1.13148 15.1631 2.52723 15.1631C3.92298 15.1631 5.05446 16.2946 5.05446 17.6903C5.05446 19.0861 3.92298 20.2175 2.52723 20.2175C1.13148 20.2175 0 19.0861 0 17.6903Z" fill="url(#paint13_linear_5_48)"/>
<path d="M26.6259 8.75561C25.6389 7.76867 25.6389 6.16851 26.6259 5.18157C27.6128 4.19462 29.213 4.19462 30.1999 5.18157C31.1869 6.16851 31.1869 7.76867 30.1999 8.75561C29.213 9.74256 27.6128 9.74256 26.6259 8.75561Z" fill="#F0F2F7"/>
<path d="M26.6259 8.75561C25.6389 7.76867 25.6389 6.16851 26.6259 5.18157C27.6128 4.19462 29.213 4.19462 30.1999 5.18157C31.1869 6.16851 31.1869 7.76867 30.1999 8.75561C29.213 9.74256 27.6128 9.74256 26.6259 8.75561Z" fill="url(#paint14_linear_5_48)"/>
<path d="M5.18166 30.1998C4.19472 29.2129 4.19472 27.6127 5.18166 26.6258C6.16861 25.6389 7.76876 25.6389 8.75571 26.6258C9.74265 27.6127 9.74265 29.2129 8.75571 30.1998C7.76876 31.1868 6.16861 31.1868 5.18166 30.1998Z" fill="#F0F2F7"/>
<path d="M5.18166 30.1998C4.19472 29.2129 4.19472 27.6127 5.18166 26.6258C6.16861 25.6389 7.76876 25.6389 8.75571 26.6258C9.74265 27.6127 9.74265 29.2129 8.75571 30.1998C7.76876 31.1868 6.16861 31.1868 5.18166 30.1998Z" fill="url(#paint15_linear_5_48)"/>
<path d="M26.6263 26.6254C27.6133 25.6384 29.2134 25.6384 30.2004 26.6254C31.1873 27.6123 31.1873 29.2125 30.2004 30.1994C29.2134 31.1864 27.6133 31.1864 26.6263 30.1994C25.6394 29.2125 25.6394 27.6123 26.6263 26.6254Z" fill="#F0F2F7"/>
<path d="M26.6263 26.6254C27.6133 25.6384 29.2134 25.6384 30.2004 26.6254C31.1873 27.6123 31.1873 29.2125 30.2004 30.1994C29.2134 31.1864 27.6133 31.1864 26.6263 30.1994C25.6394 29.2125 25.6394 27.6123 26.6263 26.6254Z" fill="url(#paint16_linear_5_48)"/>
<path d="M5.18157 5.18166C6.16851 4.19472 7.76867 4.19472 8.75561 5.18166C9.74256 6.16861 9.74256 7.76876 8.75561 8.75571C7.76867 9.74265 6.16851 9.74265 5.18157 8.75571C4.19462 7.76876 4.19462 6.16861 5.18157 5.18166Z" fill="#F0F2F7"/>
<path d="M5.18157 5.18166C6.16851 4.19472 7.76867 4.19472 8.75561 5.18166C9.74256 6.16861 9.74256 7.76876 8.75561 8.75571C7.76867 9.74265 6.16851 9.74265 5.18157 8.75571C4.19462 7.76876 4.19462 6.16861 5.18157 5.18166Z" fill="url(#paint17_linear_5_48)"/>
<path d="M5.05446 17.6903C5.05446 16.2946 6.18619 15.1631 7.58195 15.1631C8.9777 15.1631 10.1089 16.2946 10.1089 17.6903C10.1089 19.0861 8.9777 20.2175 7.58195 20.2175C6.18619 20.2175 5.05446 19.0861 5.05446 17.6903Z" fill="#F0F2F7"/>
<path d="M5.05446 17.6903C5.05446 16.2946 6.18619 15.1631 7.58195 15.1631C8.9777 15.1631 10.1089 16.2946 10.1089 17.6903C10.1089 19.0861 8.9777 20.2175 7.58195 20.2175C6.18619 20.2175 5.05446 19.0861 5.05446 17.6903Z" fill="url(#paint18_linear_5_48)"/>
<path d="M15.1634 22.745C15.1634 21.3493 16.2951 20.2178 17.6908 20.2178C19.0866 20.2178 20.2183 21.3493 20.2183 22.745C20.2183 24.1408 19.0866 25.272 17.6908 25.272C16.2951 25.272 15.1634 24.1408 15.1634 22.745Z" fill="#F0F2F7"/>
<path d="M15.1634 22.745C15.1634 21.3493 16.2951 20.2178 17.6908 20.2178C19.0866 20.2178 20.2183 21.3493 20.2183 22.745C20.2183 24.1408 19.0866 25.272 17.6908 25.272C16.2951 25.272 15.1634 24.1408 15.1634 22.745Z" fill="url(#paint19_linear_5_48)"/>
<defs>
<linearGradient id="paint0_linear_5_48" x1="25.958" y1="5.54861" x2="2.98687" y2="35.3279" gradientUnits="userSpaceOnUse">
<stop stop-color="#08A4FF"/>
<stop offset="1" stop-color="#0084E3"/>
</linearGradient>
<linearGradient id="paint1_linear_5_48" x1="25.958" y1="5.54861" x2="2.98687" y2="35.3279" gradientUnits="userSpaceOnUse">
<stop stop-color="#08A4FF"/>
<stop offset="1" stop-color="#0084E3"/>
</linearGradient>
<linearGradient id="paint2_linear_5_48" x1="25.958" y1="5.54861" x2="2.98687" y2="35.3279" gradientUnits="userSpaceOnUse">
<stop stop-color="#08A4FF"/>
<stop offset="1" stop-color="#0084E3"/>
</linearGradient>
<linearGradient id="paint3_linear_5_48" x1="25.958" y1="5.54861" x2="2.98687" y2="35.3279" gradientUnits="userSpaceOnUse">
<stop stop-color="#08A4FF"/>
<stop offset="1" stop-color="#0084E3"/>
</linearGradient>
<linearGradient id="paint4_linear_5_48" x1="25.958" y1="5.54861" x2="2.98687" y2="35.3279" gradientUnits="userSpaceOnUse">
<stop stop-color="#08A4FF"/>
<stop offset="1" stop-color="#0084E3"/>
</linearGradient>
<linearGradient id="paint5_linear_5_48" x1="25.958" y1="5.54861" x2="2.98687" y2="35.3279" gradientUnits="userSpaceOnUse">
<stop stop-color="#08A4FF"/>
<stop offset="1" stop-color="#0084E3"/>
</linearGradient>
<linearGradient id="paint6_linear_5_48" x1="25.958" y1="5.54861" x2="2.98687" y2="35.3279" gradientUnits="userSpaceOnUse">
<stop stop-color="#08A4FF"/>
<stop offset="1" stop-color="#0084E3"/>
</linearGradient>
<linearGradient id="paint7_linear_5_48" x1="25.958" y1="5.54861" x2="2.98687" y2="35.3279" gradientUnits="userSpaceOnUse">
<stop stop-color="#08A4FF"/>
<stop offset="1" stop-color="#0084E3"/>
</linearGradient>
<linearGradient id="paint8_linear_5_48" x1="25.958" y1="5.54861" x2="2.98687" y2="35.3279" gradientUnits="userSpaceOnUse">
<stop stop-color="#08A4FF"/>
<stop offset="1" stop-color="#0084E3"/>
</linearGradient>
<linearGradient id="paint9_linear_5_48" x1="25.958" y1="5.54861" x2="2.98687" y2="35.3279" gradientUnits="userSpaceOnUse">
<stop stop-color="#08A4FF"/>
<stop offset="1" stop-color="#0084E3"/>
</linearGradient>
<linearGradient id="paint10_linear_5_48" x1="25.958" y1="5.54861" x2="2.98687" y2="35.3279" gradientUnits="userSpaceOnUse">
<stop stop-color="#08A4FF"/>
<stop offset="1" stop-color="#0084E3"/>
</linearGradient>
<linearGradient id="paint11_linear_5_48" x1="25.958" y1="5.54861" x2="2.98687" y2="35.3279" gradientUnits="userSpaceOnUse">
<stop stop-color="#08A4FF"/>
<stop offset="1" stop-color="#0084E3"/>
</linearGradient>
<linearGradient id="paint12_linear_5_48" x1="25.958" y1="5.54861" x2="2.98687" y2="35.3279" gradientUnits="userSpaceOnUse">
<stop stop-color="#08A4FF"/>
<stop offset="1" stop-color="#0084E3"/>
</linearGradient>
<linearGradient id="paint13_linear_5_48" x1="25.958" y1="5.54861" x2="2.98687" y2="35.3279" gradientUnits="userSpaceOnUse">
<stop stop-color="#08A4FF"/>
<stop offset="1" stop-color="#0084E3"/>
</linearGradient>
<linearGradient id="paint14_linear_5_48" x1="25.958" y1="5.54861" x2="2.98687" y2="35.3279" gradientUnits="userSpaceOnUse">
<stop stop-color="#08A4FF"/>
<stop offset="1" stop-color="#0084E3"/>
</linearGradient>
<linearGradient id="paint15_linear_5_48" x1="25.958" y1="5.54861" x2="2.98687" y2="35.3279" gradientUnits="userSpaceOnUse">
<stop stop-color="#08A4FF"/>
<stop offset="1" stop-color="#0084E3"/>
</linearGradient>
<linearGradient id="paint16_linear_5_48" x1="25.958" y1="5.54861" x2="2.98687" y2="35.3279" gradientUnits="userSpaceOnUse">
<stop stop-color="#08A4FF"/>
<stop offset="1" stop-color="#0084E3"/>
</linearGradient>
<linearGradient id="paint17_linear_5_48" x1="25.958" y1="5.54861" x2="2.98687" y2="35.3279" gradientUnits="userSpaceOnUse">
<stop stop-color="#08A4FF"/>
<stop offset="1" stop-color="#0084E3"/>
</linearGradient>
<linearGradient id="paint18_linear_5_48" x1="25.958" y1="5.54861" x2="2.98687" y2="35.3279" gradientUnits="userSpaceOnUse">
<stop stop-color="#08A4FF"/>
<stop offset="1" stop-color="#0084E3"/>
</linearGradient>
<linearGradient id="paint19_linear_5_48" x1="25.958" y1="5.54861" x2="2.98687" y2="35.3279" gradientUnits="userSpaceOnUse">
<stop stop-color="#08A4FF"/>
<stop offset="1" stop-color="#0084E3"/>
</linearGradient>
</defs>
</svg>
