<svg width="132" height="36" viewBox="0 0 132 36" fill="none" xmlns="http://www.w3.org/2000/svg">
<path d="M20.2183 17.6903C20.2183 16.2946 21.3498 15.1631 22.7456 15.1631C24.1413 15.1631 25.2728 16.2946 25.2728 17.6903C25.2728 19.0861 24.1413 20.2175 22.7456 20.2175C21.3498 20.2175 20.2183 19.0861 20.2183 17.6903Z" fill="#F0F2F7"/>
<path d="M20.2183 12.6356C20.2183 11.2398 21.3498 10.1084 22.7456 10.1084C24.1413 10.1084 25.2728 11.2398 25.2728 12.6356C25.2728 14.0313 24.1413 15.1631 22.7456 15.1631C21.3498 15.1631 20.2183 14.0313 20.2183 12.6356Z" fill="#F0F2F7"/>
<path d="M20.2183 22.745C20.2183 21.3493 21.3498 20.2175 22.7456 20.2175C24.1413 20.2175 25.2728 21.3493 25.2728 22.745C25.2728 24.1408 24.1413 25.2723 22.7456 25.2723C21.3498 25.2723 20.2183 24.1408 20.2183 22.745Z" fill="#F0F2F7"/>
<path d="M10.1089 22.745C10.1089 21.3493 11.2404 20.2178 12.6361 20.2178C14.0319 20.2178 15.1634 21.3493 15.1634 22.745C15.1634 24.1408 14.0319 25.2723 12.6361 25.2723C11.2404 25.2723 10.1089 24.1408 10.1089 22.745Z" fill="#F0F2F7"/>
<path d="M10.1089 12.6356C10.1089 11.2398 11.2404 10.1084 12.6361 10.1084C14.0319 10.1084 15.1634 11.2398 15.1634 12.6356C15.1634 14.0313 14.0319 15.1628 12.6361 15.1628C11.2404 15.1628 10.1089 14.0313 10.1089 12.6356Z" fill="#F0F2F7"/>
<path d="M10.1089 17.6903C10.1089 16.2946 11.2404 15.1628 12.6361 15.1628C14.0319 15.1628 15.1634 16.2946 15.1634 17.6903C15.1634 19.0861 14.0319 20.2178 12.6361 20.2178C11.2404 20.2178 10.1089 19.0861 10.1089 17.6903Z" fill="#F0F2F7"/>
<path d="M15.1634 12.6356C15.1634 11.2398 16.2951 10.1084 17.6908 10.1084C19.0866 10.1084 20.2183 11.2398 20.2183 12.6356C20.2183 14.0313 19.0866 15.1628 17.6908 15.1628C16.2951 15.1628 15.1634 14.0313 15.1634 12.6356Z" fill="#F0F2F7"/>
<path d="M15.1636 7.58195C15.1636 6.1862 16.2951 5.05472 17.6908 5.05472C19.0866 5.05472 20.2181 6.1862 20.2181 7.58195C20.2181 8.9777 19.0866 10.1092 17.6908 10.1092C16.2951 10.1092 15.1636 8.9777 15.1636 7.58195Z" fill="#F0F2F7"/>
<path d="M15.1636 2.52723C15.1636 1.13148 16.2951 0 17.6908 0C19.0866 0 20.2181 1.13148 20.2181 2.52723C20.2181 3.92298 19.0866 5.05472 17.6908 5.05472C16.2951 5.05472 15.1636 3.92298 15.1636 2.52723Z" fill="#F0F2F7"/>
<path d="M15.1636 32.8534C15.1636 31.4576 16.2951 30.3262 17.6908 30.3262C19.0866 30.3262 20.2181 31.4576 20.2181 32.8534C20.2181 34.2491 19.0866 35.3806 17.6908 35.3806C16.2951 35.3806 15.1636 34.2491 15.1636 32.8534Z" fill="#F0F2F7"/>
<path d="M15.1636 27.7992C15.1636 26.4035 16.2951 25.272 17.6908 25.272C19.0866 25.272 20.2181 26.4035 20.2181 27.7992C20.2181 29.195 19.0866 30.3262 17.6908 30.3262C16.2951 30.3262 15.1636 29.195 15.1636 27.7992Z" fill="#F0F2F7"/>
<path d="M25.2728 17.6903C25.2728 16.2946 26.404 15.1631 27.7997 15.1631C29.1955 15.1631 30.327 16.2946 30.327 17.6903C30.327 19.0861 29.1955 20.2175 27.7997 20.2175C26.404 20.2175 25.2728 19.0861 25.2728 17.6903Z" fill="#F0F2F7"/>
<path d="M30.327 17.6903C30.327 16.2946 31.4587 15.1631 32.8545 15.1631C34.2502 15.1631 35.3817 16.2946 35.3817 17.6903C35.3817 19.0861 34.2502 20.2175 32.8545 20.2175C31.4587 20.2175 30.327 19.0861 30.327 17.6903Z" fill="#F0F2F7"/>
<path d="M0 17.6903C0 16.2946 1.13148 15.1631 2.52723 15.1631C3.92298 15.1631 5.05446 16.2946 5.05446 17.6903C5.05446 19.0861 3.92298 20.2175 2.52723 20.2175C1.13148 20.2175 0 19.0861 0 17.6903Z" fill="#F0F2F7"/>
<path d="M26.6259 8.75561C25.6389 7.76867 25.6389 6.16851 26.6259 5.18157C27.6128 4.19462 29.213 4.19462 30.1999 5.18157C31.1869 6.16851 31.1869 7.76867 30.1999 8.75561C29.213 9.74256 27.6128 9.74256 26.6259 8.75561Z" fill="#F0F2F7"/>
<path d="M5.18166 30.1998C4.19472 29.2129 4.19472 27.6127 5.18166 26.6258C6.16861 25.6389 7.76876 25.6389 8.75571 26.6258C9.74265 27.6127 9.74265 29.2129 8.75571 30.1998C7.76876 31.1868 6.16861 31.1868 5.18166 30.1998Z" fill="#F0F2F7"/>
<path d="M26.6263 26.6254C27.6133 25.6384 29.2134 25.6384 30.2004 26.6254C31.1873 27.6123 31.1873 29.2125 30.2004 30.1994C29.2134 31.1864 27.6133 31.1864 26.6263 30.1994C25.6394 29.2125 25.6394 27.6123 26.6263 26.6254Z" fill="#F0F2F7"/>
<path d="M5.18157 5.18166C6.16851 4.19472 7.76867 4.19472 8.75561 5.18166C9.74256 6.16861 9.74256 7.76876 8.75561 8.75571C7.76867 9.74265 6.16851 9.74265 5.18157 8.75571C4.19462 7.76876 4.19462 6.16861 5.18157 5.18166Z" fill="#F0F2F7"/>
<path d="M5.05446 17.6903C5.05446 16.2946 6.18619 15.1631 7.58195 15.1631C8.9777 15.1631 10.1089 16.2946 10.1089 17.6903C10.1089 19.0861 8.9777 20.2175 7.58195 20.2175C6.18619 20.2175 5.05446 19.0861 5.05446 17.6903Z" fill="#F0F2F7"/>
<path d="M15.1634 22.745C15.1634 21.3493 16.2951 20.2178 17.6908 20.2178C19.0866 20.2178 20.2183 21.3493 20.2183 22.745C20.2183 24.1408 19.0866 25.272 17.6908 25.272C16.2951 25.272 15.1634 24.1408 15.1634 22.745Z" fill="#F0F2F7"/>
<path d="M20.2183 17.6903C20.2183 16.2946 21.3498 15.1631 22.7456 15.1631C24.1413 15.1631 25.2728 16.2946 25.2728 17.6903C25.2728 19.0861 24.1413 20.2175 22.7456 20.2175C21.3498 20.2175 20.2183 19.0861 20.2183 17.6903Z" fill="#F0F2F7"/>
<path d="M20.2183 12.6356C20.2183 11.2398 21.3498 10.1084 22.7456 10.1084C24.1413 10.1084 25.2728 11.2398 25.2728 12.6356C25.2728 14.0313 24.1413 15.1631 22.7456 15.1631C21.3498 15.1631 20.2183 14.0313 20.2183 12.6356Z" fill="#F0F2F7"/>
<path d="M20.2183 22.745C20.2183 21.3493 21.3498 20.2175 22.7456 20.2175C24.1413 20.2175 25.2728 21.3493 25.2728 22.745C25.2728 24.1408 24.1413 25.2723 22.7456 25.2723C21.3498 25.2723 20.2183 24.1408 20.2183 22.745Z" fill="#F0F2F7"/>
<path d="M10.1089 22.745C10.1089 21.3493 11.2404 20.2178 12.6361 20.2178C14.0319 20.2178 15.1634 21.3493 15.1634 22.745C15.1634 24.1408 14.0319 25.2723 12.6361 25.2723C11.2404 25.2723 10.1089 24.1408 10.1089 22.745Z" fill="#F0F2F7"/>
<path d="M10.1089 12.6356C10.1089 11.2398 11.2404 10.1084 12.6361 10.1084C14.0319 10.1084 15.1634 11.2398 15.1634 12.6356C15.1634 14.0313 14.0319 15.1628 12.6361 15.1628C11.2404 15.1628 10.1089 14.0313 10.1089 12.6356Z" fill="#F0F2F7"/>
<path d="M10.1089 17.6903C10.1089 16.2946 11.2404 15.1628 12.6361 15.1628C14.0319 15.1628 15.1634 16.2946 15.1634 17.6903C15.1634 19.0861 14.0319 20.2178 12.6361 20.2178C11.2404 20.2178 10.1089 19.0861 10.1089 17.6903Z" fill="#F0F2F7"/>
<path d="M15.1634 12.6356C15.1634 11.2398 16.2951 10.1084 17.6908 10.1084C19.0866 10.1084 20.2183 11.2398 20.2183 12.6356C20.2183 14.0313 19.0866 15.1628 17.6908 15.1628C16.2951 15.1628 15.1634 14.0313 15.1634 12.6356Z" fill="#F0F2F7"/>
<path d="M15.1636 7.58195C15.1636 6.1862 16.2951 5.05472 17.6908 5.05472C19.0866 5.05472 20.2181 6.1862 20.2181 7.58195C20.2181 8.9777 19.0866 10.1092 17.6908 10.1092C16.2951 10.1092 15.1636 8.9777 15.1636 7.58195Z" fill="#F0F2F7"/>
<path d="M15.1636 2.52723C15.1636 1.13148 16.2951 0 17.6908 0C19.0866 0 20.2181 1.13148 20.2181 2.52723C20.2181 3.92298 19.0866 5.05472 17.6908 5.05472C16.2951 5.05472 15.1636 3.92298 15.1636 2.52723Z" fill="#F0F2F7"/>
<path d="M15.1636 32.8534C15.1636 31.4576 16.2951 30.3262 17.6908 30.3262C19.0866 30.3262 20.2181 31.4576 20.2181 32.8534C20.2181 34.2491 19.0866 35.3806 17.6908 35.3806C16.2951 35.3806 15.1636 34.2491 15.1636 32.8534Z" fill="#F0F2F7"/>
<path d="M15.1636 27.7992C15.1636 26.4035 16.2951 25.272 17.6908 25.272C19.0866 25.272 20.2181 26.4035 20.2181 27.7992C20.2181 29.195 19.0866 30.3262 17.6908 30.3262C16.2951 30.3262 15.1636 29.195 15.1636 27.7992Z" fill="#F0F2F7"/>
<path d="M25.2728 17.6903C25.2728 16.2946 26.404 15.1631 27.7997 15.1631C29.1955 15.1631 30.327 16.2946 30.327 17.6903C30.327 19.0861 29.1955 20.2175 27.7997 20.2175C26.404 20.2175 25.2728 19.0861 25.2728 17.6903Z" fill="#F0F2F7"/>
<path d="M30.327 17.6903C30.327 16.2946 31.4587 15.1631 32.8545 15.1631C34.2502 15.1631 35.3817 16.2946 35.3817 17.6903C35.3817 19.0861 34.2502 20.2175 32.8545 20.2175C31.4587 20.2175 30.327 19.0861 30.327 17.6903Z" fill="#F0F2F7"/>
<path d="M0 17.6903C0 16.2946 1.13148 15.1631 2.52723 15.1631C3.92298 15.1631 5.05446 16.2946 5.05446 17.6903C5.05446 19.0861 3.92298 20.2175 2.52723 20.2175C1.13148 20.2175 0 19.0861 0 17.6903Z" fill="#F0F2F7"/>
<path d="M26.6259 8.75561C25.6389 7.76867 25.6389 6.16851 26.6259 5.18157C27.6128 4.19462 29.213 4.19462 30.1999 5.18157C31.1869 6.16851 31.1869 7.76867 30.1999 8.75561C29.213 9.74256 27.6128 9.74256 26.6259 8.75561Z" fill="#F0F2F7"/>
<path d="M5.18166 30.1998C4.19472 29.2129 4.19472 27.6127 5.18166 26.6258C6.16861 25.6389 7.76876 25.6389 8.75571 26.6258C9.74265 27.6127 9.74265 29.2129 8.75571 30.1998C7.76876 31.1868 6.16861 31.1868 5.18166 30.1998Z" fill="#F0F2F7"/>
<path d="M26.6263 26.6254C27.6133 25.6384 29.2134 25.6384 30.2004 26.6254C31.1873 27.6123 31.1873 29.2125 30.2004 30.1994C29.2134 31.1864 27.6133 31.1864 26.6263 30.1994C25.6394 29.2125 25.6394 27.6123 26.6263 26.6254Z" fill="#F0F2F7"/>
<path d="M5.18157 5.18166C6.16851 4.19472 7.76867 4.19472 8.75561 5.18166C9.74256 6.16861 9.74256 7.76876 8.75561 8.75571C7.76867 9.74265 6.16851 9.74265 5.18157 8.75571C4.19462 7.76876 4.19462 6.16861 5.18157 5.18166Z" fill="#F0F2F7"/>
<path d="M5.05446 17.6903C5.05446 16.2946 6.18619 15.1631 7.58195 15.1631C8.9777 15.1631 10.1089 16.2946 10.1089 17.6903C10.1089 19.0861 8.9777 20.2175 7.58195 20.2175C6.18619 20.2175 5.05446 19.0861 5.05446 17.6903Z" fill="#F0F2F7"/>
<path d="M15.1634 22.745C15.1634 21.3493 16.2951 20.2178 17.6908 20.2178C19.0866 20.2178 20.2183 21.3493 20.2183 22.745C20.2183 24.1408 19.0866 25.272 17.6908 25.272C16.2951 25.272 15.1634 24.1408 15.1634 22.745Z" fill="#F0F2F7"/>
<path d="M124.037 28.9037C122.22 28.9037 120.649 28.6259 119.324 28.0703C117.999 27.4932 116.963 26.7239 116.215 25.7622L118.619 23.5824C119.303 24.3303 120.083 24.9074 120.959 25.3134C121.857 25.7195 122.893 25.9225 124.069 25.9225C125.095 25.9225 125.917 25.7515 126.537 25.4096C127.157 25.0676 127.467 24.5441 127.467 23.8388C127.467 23.2404 127.253 22.8344 126.826 22.6207C126.42 22.407 125.875 22.2467 125.191 22.1398L122.53 21.7231C121.846 21.6162 121.173 21.4666 120.511 21.2743C119.869 21.0606 119.292 20.7721 118.78 20.4088C118.288 20.0455 117.893 19.586 117.593 19.0303C117.294 18.4533 117.145 17.7588 117.145 16.9467C117.145 15.2156 117.786 13.8906 119.068 12.9717C120.372 12.0527 122.156 11.5933 124.421 11.5933C126.024 11.5933 127.381 11.8177 128.493 12.2664C129.625 12.7152 130.555 13.3457 131.282 14.1578L129.134 16.5299C128.664 16.017 128.033 15.5683 127.242 15.1836C126.473 14.7775 125.49 14.5745 124.293 14.5745C122.199 14.5745 121.152 15.2263 121.152 16.5299C121.152 17.1283 121.365 17.5451 121.793 17.7801C122.22 17.9939 122.776 18.1541 123.46 18.261L126.088 18.6777C126.794 18.7846 127.467 18.9449 128.108 19.1586C128.77 19.3509 129.347 19.6287 129.839 19.992C130.352 20.3553 130.758 20.8148 131.057 21.3705C131.356 21.9261 131.506 22.61 131.506 23.4221C131.506 25.1318 130.843 26.4781 129.518 27.4612C128.215 28.4229 126.388 28.9037 124.037 28.9037Z" fill="#F0F2F7"/>
<path d="M110.112 25.602H109.951C109.588 26.4996 109.022 27.2796 108.252 27.9421C107.505 28.5832 106.457 28.9038 105.111 28.9038C103.487 28.9038 102.162 28.3695 101.136 27.301C100.132 26.2111 99.6293 24.6617 99.6293 22.6528V11.978H103.733V22.0758C103.733 24.4693 104.769 25.6661 106.842 25.6661C107.248 25.6661 107.643 25.6127 108.028 25.5058C108.434 25.399 108.787 25.2387 109.086 25.025C109.407 24.7899 109.652 24.5121 109.823 24.1915C110.016 23.871 110.112 23.4863 110.112 23.0375V11.978H114.215V28.5191H110.112V25.602Z" fill="#F0F2F7"/>
<path d="M73.7919 25.2814L73.7919 15.2157L73.7919 11.978H77.8951V16.498H78.1515C78.3011 15.921 78.5041 15.3653 78.7606 14.831C79.0384 14.2754 79.3804 13.7946 79.7864 13.3885C80.2138 12.9611 80.7267 12.6192 81.3251 12.3627C81.9235 12.1063 82.6394 11.978 83.4729 11.978H85.2681V15.8248H81.8701C80.6306 15.8248 79.6582 16.1881 78.9529 16.9147C78.2477 17.6413 77.8951 18.571 77.8951 19.7036V28.5191L73.7919 28.5191V25.2814Z" fill="#F0F2F7"/>
<path d="M51.0959 28.9036C49.1725 28.9036 47.527 28.5724 46.1592 27.9099C44.8129 27.2474 43.7123 26.3712 42.8574 25.2813L45.3899 22.6526C46.2233 23.6143 47.1209 24.3303 48.0826 24.8004C49.0657 25.2492 50.1129 25.4736 51.2241 25.4736C52.5064 25.4736 53.4895 25.1851 54.1733 24.6081C54.8572 24.0311 55.1991 23.1976 55.1991 22.1077C55.1991 21.2101 54.9427 20.5369 54.4298 20.0881C53.9169 19.618 53.0514 19.2867 51.8332 19.0944L49.461 18.7097C47.3881 18.3464 45.9135 17.5984 45.0373 16.4658C44.161 15.3117 43.7229 13.9547 43.7229 12.3946C43.7229 10.2575 44.4175 8.62262 45.8066 7.48996C47.1957 6.33593 49.1191 5.75891 51.5768 5.75891C53.3292 5.75891 54.8358 6.03673 56.0967 6.59238C57.379 7.14802 58.4048 7.90669 59.1741 8.86838L56.7058 11.497C56.1074 10.7918 55.3915 10.2361 54.558 9.83008C53.7245 9.40266 52.7415 9.18895 51.6088 9.18895C49.1725 9.18895 47.9544 10.1934 47.9544 12.2023C47.9544 13.0571 48.2108 13.7089 48.7237 14.1577C49.2366 14.6065 50.1129 14.9377 51.3524 15.1514L53.6925 15.5682C55.6372 15.9315 57.0798 16.6474 58.0201 17.716C58.9604 18.7845 59.4306 20.1522 59.4306 21.8192C59.4306 22.8664 59.2489 23.828 58.8856 24.7043C58.5223 25.5591 57.988 26.3071 57.2828 26.9482C56.5776 27.568 55.7014 28.0488 54.6542 28.3907C53.6284 28.7327 52.4423 28.9036 51.0959 28.9036Z" fill="#F0F2F7"/>
<path d="M61.4315 25.2814H64.7528V15.2157H61.4315V11.978H68.8561V25.2814H71.7928V28.5191H61.4315V25.2814Z" fill="#F0F2F7"/>
<circle cx="66.6117" cy="7.00284" r="2.52591" fill="#F0F2F7"/>
<path d="M87.2685 25.2814H90.5899V15.2157H87.2685V11.978H94.6931V25.2814H97.6298V28.5191H87.2685V25.2814Z" fill="#F0F2F7"/>
<circle cx="92.4487" cy="7.00284" r="2.52591" fill="#F0F2F7"/>
</svg>
